Loretta - Bold Display.ufo
<glyph name="exclam" format="2">
	<advance width="408"/>
	<unicode hex="0021"/>
	<outline>
		<contour>
			<point x="190" y="223" type="line"/>
			<point x="214" y="223" type="line"/>
			<point x="280" y="591" type="line" smooth="yes"/>
			<point x="294" y="667"/>
			<point x="291" y="739"/>
			<point x="201" y="739" type="curve" smooth="yes"/>
			<point x="110" y="739"/>
			<point x="111" y="665"/>
			<point x="125" y="586" type="curve" smooth="yes"/>
		</contour>
		<contour>
			<point x="205" y="-16" type="curve" smooth="yes"/>
			<point x="249" y="-16"/>
			<point x="288" y="22"/>
			<point x="288" y="69" type="curve" smooth="yes"/>
			<point x="288" y="115"/>
			<point x="249" y="152"/>
			<point x="205" y="152" type="curve" smooth="yes"/>
			<point x="160" y="152"/>
			<point x="120" y="115"/>
			<point x="120" y="69" type="curve" smooth="yes"/>
			<point x="120" y="22"/>
			<point x="160" y="-16"/>
		</contour>
	</outline>
</glyph>
<glyph name="percent" format="2">
	<advance width="880"/>
	<unicode hex="0025"/>
	<outline>
		<contour>
			<point x="171" y="0" type="line"/>
			<point x="200" y="0" type="line"/>
			<point x="710" y="704" type="line"/>
			<point x="681" y="704" type="line"/>
		</contour>
		<contour>
			<point x="235" y="347" type="curve" smooth="yes"/>
			<point x="330" y="347"/>
			<point x="409" y="417"/>
			<point x="409" y="529" type="curve" smooth="yes"/>
			<point x="409" y="643"/>
			<point x="330" y="711"/>
			<point x="235" y="711" type="curve" smooth="yes"/>
			<point x="140" y="711"/>
			<point x="60" y="643"/>
			<point x="60" y="529" type="curve" smooth="yes"/>
			<point x="60" y="417"/>
			<point x="140" y="347"/>
		</contour>
		<contour>
			<point x="235" y="365" type="curve" smooth="yes"/>
			<point x="201" y="365"/>
			<point x="180" y="406"/>
			<point x="180" y="529" type="curve" smooth="yes"/>
			<point x="180" y="654"/>
			<point x="201" y="693"/>
			<point x="235" y="693" type="curve" smooth="yes"/>
			<point x="269" y="693"/>
			<point x="289" y="654"/>
			<point x="289" y="529" type="curve" smooth="yes"/>
			<point x="289" y="406"/>
			<point x="269" y="365"/>
		</contour>
		<contour>
			<point x="646" y="-10" type="curve" smooth="yes"/>
			<point x="741" y="-10"/>
			<point x="820" y="60"/>
			<point x="820" y="172" type="curve" smooth="yes"/>
			<point x="820" y="286"/>
			<point x="741" y="354"/>
			<point x="646" y="354" type="curve" smooth="yes"/>
			<point x="551" y="354"/>
			<point x="471" y="286"/>
			<point x="471" y="172" type="curve" smooth="yes"/>
			<point x="471" y="60"/>
			<point x="551" y="-10"/>
		</contour>
		<contour>
			<point x="646" y="8" type="curve" smooth="yes"/>
			<point x="612" y="8"/>
			<point x="591" y="49"/>
			<point x="591" y="172" type="curve" smooth="yes"/>
			<point x="591" y="297"/>
			<point x="612" y="336"/>
			<point x="646" y="336" type="curve" smooth="yes"/>
			<point x="680" y="336"/>
			<point x="700" y="297"/>
			<point x="700" y="172" type="curve" smooth="yes"/>
			<point x="700" y="49"/>
			<point x="680" y="8"/>
		</contour>
	</outline>
</glyph>
<glyph name="comma" format="2">
	<advance width="310"/>
	<unicode hex="002C"/>
	<outline>
		<contour>
			<point x="89" y="-154" type="line"/>
			<point x="182" y="-128"/>
			<point x="241" y="-58"/>
			<point x="241" y="40" type="curve" smooth="yes"/>
			<point x="241" y="123"/>
			<point x="199" y="161"/>
			<point x="147" y="161" type="curve" smooth="yes"/>
			<point x="89" y="161"/>
			<point x="56" y="117"/>
			<point x="56" y="67" type="curve" smooth="yes"/>
			<point x="56" y="25"/>
			<point x="82" y="-16"/>
			<point x="144" y="-16" type="curve" smooth="yes"/>
			<point x="179" y="-16"/>
			<point x="206" y="-3"/>
			<point x="226" y="29" type="curve"/>
			<point x="215" y="36" type="line"/>
			<point x="214" y="-54"/>
			<point x="165" y="-108"/>
			<point x="81" y="-136" type="curve"/>
		</contour>
	</outline>
</glyph>
<glyph name="zero" format="2">
	<advance width="591"/>
	<unicode hex="0030"/>
	<outline>
		<contour>
			<point x="295" y="-12" type="curve" smooth="yes"/>
			<point x="441" y="-12"/>
			<point x="561" y="88"/>
			<point x="561" y="250" type="curve" smooth="yes"/>
			<point x="561" y="411"/>
			<point x="441" y="511"/>
			<point x="295" y="511" type="curve" smooth="yes"/>
			<point x="149" y="511"/>
			<point x="30" y="411"/>
			<point x="30" y="250" type="curve" smooth="yes"/>
			<point x="30" y="88"/>
			<point x="149" y="-12"/>
		</contour>
		<contour>
			<point x="295" y="6" type="curve" smooth="yes"/>
			<point x="240" y="6"/>
			<point x="200" y="66"/>
			<point x="200" y="250" type="curve" smooth="yes"/>
			<point x="200" y="434"/>
			<point x="240" y="493"/>
			<point x="295" y="493" type="curve" smooth="yes"/>
			<point x="350" y="493"/>
			<point x="391" y="434"/>
			<point x="391" y="250" type="curve" smooth="yes"/>
			<point x="391" y="66"/>
			<point x="350" y="6"/>
		</contour>
	</outline>
</glyph>
<glyph name="two" format="2">
	<advance width="517"/>
	<unicode hex="0032"/>
	<outline>
		<contour>
			<point x="58" y="0" type="line"/>
			<point x="458" y="0" type="line"/>
			<point x="477" y="192" type="line"/>
			<point x="464" y="194" type="line"/>
			<point x="435" y="122"/>
			<point x="419" y="110"/>
			<point x="314" y="110" type="curve" smooth="yes"/>
			<point x="138" y="110" type="line"/>
			<point x="63" y="58" type="line"/>
			<point x="283" y="184" type="line" smooth="yes"/>
			<point x="363" y="230"/>
			<point x="454" y="273"/>
			<point x="454" y="372" type="curve" smooth="yes"/>
			<point x="454" y="467"/>
			<point x="370" y="511"/>
			<point x="268" y="511" type="curve" smooth="yes"/>
			<point x="153" y="511"/>
			<point x="67" y="454"/>
			<point x="35" y="320" type="curve"/>
			<point x="51" y="315" type="line"/>
			<point x="80" y="396"/>
			<point x="133" y="428"/>
			<point x="193" y="428" type="curve" smooth="yes"/>
			<point x="258" y="428"/>
			<point x="294" y="391"/>
			<point x="294" y="316" type="curve" smooth="yes"/>
			<point x="294" y="251"/>
			<point x="265" y="203"/>
			<point x="205" y="164" type="curve" smooth="yes"/>
			<point x="41" y="57" type="line"/>
		</contour>
	</outline>
</glyph>
<glyph name="three" format="2">
	<advance width="542"/>
	<unicode hex="0033"/>
	<outline>
		<contour>
			<point x="57" y="-220" type="line"/>
			<point x="298" y="-200"/>
			<point x="502" y="-84"/>
			<point x="502" y="85" type="curve" smooth="yes"/>
			<point x="502" y="188"/>
			<point x="427" y="241"/>
			<point x="333" y="241" type="curve" smooth="yes"/>
			<point x="267" y="241"/>
			<point x="219" y="215"/>
			<point x="185" y="185" type="curve"/>
			<point x="188" y="181" type="line"/>
			<point x="479" y="472" type="line"/>
			<point x="472" y="490" type="line"/>
			<point x="65" y="490" type="line"/>
			<point x="35" y="299" type="line"/>
			<point x="53" y="297" type="line"/>
			<point x="77" y="372"/>
			<point x="100" y="380"/>
			<point x="186" y="380" type="curve" smooth="yes"/>
			<point x="379" y="380" type="line"/>
			<point x="446" y="472" type="line"/>
			<point x="142" y="165" type="line"/>
			<point x="154" y="147" type="line"/>
			<point x="180" y="166"/>
			<point x="208" y="174"/>
			<point x="235" y="174" type="curve" smooth="yes"/>
			<point x="287" y="174"/>
			<point x="332" y="139"/>
			<point x="332" y="39" type="curve" smooth="yes"/>
			<point x="332" y="-99"/>
			<point x="246" y="-178"/>
			<point x="55" y="-202" type="curve"/>
		</contour>
	</outline>
</glyph>
<glyph name="greater" format="2">
	<advance width="600"/>
	<unicode hex="003E"/>
	<outline>
		<contour>
			<point x="506" y="279" type="line"/>
			<point x="506" y="326" type="line"/>
			<point x="105" y="533" type="line"/>
			<point x="105" y="487" type="line"/>
		</contour>
		<contour>
			<point x="105" y="73" type="line"/>
			<point x="506" y="279" type="line" name="🔥"/>
			<point x="506" y="325" type="line" name="🔥"/>
			<point x="105" y="119" type="line"/>
		</contour>
	</outline>
</glyph>
<glyph name="question" format="2">
	<advance width="523"/>
	<unicode hex="003F"/>
	<outline>
		<contour>
			<point x="236" y="183" type="curve"/>
			<point x="246" y="195" type="line"/>
			<point x="220" y="214"/>
			<point x="204" y="233"/>
			<point x="204" y="262" type="curve" smooth="yes"/>
			<point x="204" y="382"/>
			<point x="485" y="386"/>
			<point x="485" y="560" type="curve" smooth="yes"/>
			<point x="485" y="660"/>
			<point x="393" y="710"/>
			<point x="259" y="710" type="curve" smooth="yes"/>
			<point x="153" y="710"/>
			<point x="95" y="679"/>
			<point x="50" y="645" type="curve"/>
			<point x="57" y="494" type="line"/>
			<point x="76" y="494" type="line"/>
			<point x="77" y="588"/>
			<point x="106" y="691"/>
			<point x="216" y="691" type="curve" smooth="yes"/>
			<point x="287" y="691"/>
			<point x="318" y="649"/>
			<point x="318" y="583" type="curve" smooth="yes"/>
			<point x="318" y="435"/>
			<point x="163" y="434"/>
			<point x="163" y="296" type="curve" smooth="yes"/>
			<point x="163" y="249"/>
			<point x="181" y="216"/>
		</contour>
		<contour>
			<point x="225" y="-16" type="curve" smooth="yes"/>
			<point x="269" y="-16"/>
			<point x="308" y="22"/>
			<point x="308" y="69" type="curve" smooth="yes"/>
			<point x="308" y="115"/>
			<point x="269" y="152"/>
			<point x="225" y="152" type="curve" smooth="yes"/>
			<point x="180" y="152"/>
			<point x="140" y="115"/>
			<point x="140" y="69" type="curve" smooth="yes"/>
			<point x="140" y="22"/>
			<point x="180" y="-16"/>
		</contour>
	</outline>
</glyph>
<glyph name="C" format="2">
	<advance width="704"/>
	<unicode hex="0043"/>
	<anchor x="362" y="0" name="bottom"/>
	<anchor x="387" y="692" name="top"/>
	<outline>
		<contour>
			<point x="387" y="-16" type="curve" smooth="yes"/>
			<point x="527" y="-16"/>
			<point x="624" y="42"/>
			<point x="681" y="155" type="curve"/>
			<point x="661" y="168" type="line"/>
			<point x="598" y="64"/>
			<point x="512" y="42"/>
			<point x="447" y="42" type="curve" smooth="yes"/>
			<point x="313" y="42"/>
			<point x="229" y="155"/>
			<point x="229" y="381" type="curve" smooth="yes"/>
			<point x="229" y="612"/>
			<point x="315" y="688"/>
			<point x="414" y="688" type="curve" smooth="yes"/>
			<point x="514" y="688"/>
			<point x="613" y="628"/>
			<point x="624" y="450" type="curve"/>
			<point x="644" y="450" type="line"/>
			<point x="644" y="649" type="line"/>
			<point x="576" y="695"/>
			<point x="494" y="708"/>
			<point x="420" y="708" type="curve" smooth="yes"/>
			<point x="247" y="708"/>
			<point x="40" y="623"/>
			<point x="40" y="336" type="curve" smooth="yes"/>
			<point x="40" y="132"/>
			<point x="180" y="-16"/>
		</contour>
	</outline>
</glyph>
<glyph name="D" format="2">
	<advance width="810"/>
	<unicode hex="0044"/>
	<anchor x="380" y="0" name="bottom"/>
	<anchor x="210" y="359" name="center"/>
	<anchor x="380" y="692" name="top"/>
	<outline>
		<contour>
			<point x="194" y="0" type="line" name="🧨"/>
			<point x="416" y="0" type="line" smooth="yes"/>
			<point x="600" y="0"/>
			<point x="770" y="91"/>
			<point x="770" y="346" type="curve" smooth="yes"/>
			<point x="770" y="601"/>
			<point x="598" y="692"/>
			<point x="416" y="692" type="curve" smooth="yes"/>
			<point x="194" y="692" type="line" name="🧨"/>
			<point x="194" y="672" type="line"/>
			<point x="373" y="672" type="line" smooth="yes"/>
			<point x="516" y="672"/>
			<point x="582" y="566"/>
			<point x="582" y="346" type="curve" smooth="yes"/>
			<point x="582" y="126"/>
			<point x="516" y="20"/>
			<point x="366" y="20" type="curve" smooth="yes"/>
			<point x="194" y="20" type="line"/>
		</contour>
		<contour>
			<point x="120" y="0" type="line" name="_corner01"/>
			<point x="293" y="0" type="line" name="🧨"/>
			<point x="293" y="692" type="line" name="🧨"/>
			<point x="120" y="692" type="line" name="_corner00"/>
		</contour>
	</outline>
</glyph>
<glyph name="E" format="2">
	<advance width="652"/>
	<unicode hex="0045"/>
	<anchor x="344" y="0" name="bottom"/>
	<anchor x="532" y="0" name="ogonek"/>
	<anchor x="362" y="692" name="top"/>
	<anchor x="38" y="700" name="topleft"/>
	<outline>
		<contour>
			<point x="212" y="0" type="line" name="🧨"/>
			<point x="601" y="0" type="line"/>
			<point x="632" y="223" type="line"/>
			<point x="611" y="223" type="line"/>
			<point x="587" y="83"/>
			<point x="543" y="20"/>
			<point x="435" y="20" type="curve" smooth="yes"/>
			<point x="212" y="20" type="line"/>
		</contour>
		<contour>
			<point x="120" y="0" type="line" name="_corner00"/>
			<point x="293" y="0" type="line" name="🧨"/>
			<point x="293" y="692" type="line" name="🧨"/>
			<point x="120" y="692" type="line" name="_corner01"/>
		</contour>
		<contour>
			<point x="463" y="226" type="curve"/>
			<point x="483" y="226" type="line"/>
			<point x="483" y="463" type="line"/>
			<point x="463" y="463" type="line"/>
			<point x="461" y="380"/>
			<point x="440" y="355"/>
			<point x="374" y="355" type="curve" smooth="yes"/>
			<point x="198" y="355" type="line"/>
			<point x="198" y="335" type="line"/>
			<point x="374" y="335" type="line" smooth="yes"/>
			<point x="440" y="335"/>
			<point x="463" y="299"/>
		</contour>
		<contour>
			<point x="601" y="484" type="curve"/>
			<point x="621" y="484" type="line"/>
			<point x="590" y="692" type="line"/>
			<point x="212" y="692" type="line" name="🧨"/>
			<point x="212" y="672" type="line"/>
			<point x="434" y="672" type="line" smooth="yes"/>
			<point x="526" y="672"/>
			<point x="566" y="641"/>
		</contour>
	</outline>
</glyph>
<glyph name="F" format="2">
	<advance width="656"/>
	<unicode hex="0046"/>
	<anchor x="331" y="0" name="bottom"/>
	<anchor x="345" y="692" name="top"/>
	<outline>
		<contour>
			<point x="120" y="0" type="line" name="_corner00"/>
			<point x="293" y="0" type="line" name="_corner01"/>
			<point x="293" y="692" type="line" name="🧨"/>
			<point x="120" y="692" type="line" name="_corner02"/>
		</contour>
		<contour>
			<point x="463" y="230" type="curve"/>
			<point x="483" y="230" type="line"/>
			<point x="483" y="467" type="line"/>
			<point x="463" y="467" type="line"/>
			<point x="461" y="384"/>
			<point x="440" y="359"/>
			<point x="374" y="359" type="curve" smooth="yes"/>
			<point x="198" y="359" type="line"/>
			<point x="198" y="339" type="line"/>
			<point x="374" y="339" type="line" smooth="yes"/>
			<point x="440" y="339"/>
			<point x="463" y="303"/>
		</contour>
		<contour>
			<point x="601" y="484" type="curve"/>
			<point x="621" y="484" type="line"/>
			<point x="590" y="692" type="line"/>
			<point x="212" y="692" type="line" name="🧨"/>
			<point x="212" y="672" type="line"/>
			<point x="434" y="672" type="line" smooth="yes"/>
			<point x="526" y="672"/>
			<point x="566" y="641"/>
		</contour>
	</outline>
</glyph>
<glyph name="G" format="2">
	<advance width="748"/>
	<unicode hex="0047"/>
	<anchor x="423" y="0" name="bottom"/>
	<anchor x="423" y="692" name="top"/>
	<outline>
		<contour>
			<point x="413" y="-12" type="curve" smooth="yes"/>
			<point x="536" y="-12"/>
			<point x="629" y="48"/>
			<point x="672" y="94" type="curve"/>
			<point x="672" y="341" type="line" name="_corner01"/>
			<point x="517" y="341" type="line" name="_corner00"/>
			<point x="517" y="29" type="line"/>
			<point x="500" y="15"/>
			<point x="463" y="8"/>
			<point x="423" y="8" type="curve" smooth="yes"/>
			<point x="305" y="8"/>
			<point x="229" y="143"/>
			<point x="229" y="348" type="curve" smooth="yes"/>
			<point x="229" y="576"/>
			<point x="294" y="688"/>
			<point x="420" y="688" type="curve" smooth="yes"/>
			<point x="518" y="688"/>
			<point x="612" y="618"/>
			<point x="625" y="450" type="curve"/>
			<point x="644" y="450" type="line"/>
			<point x="645" y="649" type="line"/>
			<point x="611" y="667"/>
			<point x="528" y="708"/>
			<point x="423" y="708" type="curve" smooth="yes"/>
			<point x="229" y="708"/>
			<point x="40" y="603"/>
			<point x="40" y="341" type="curve" smooth="yes"/>
			<point x="40" y="122"/>
			<point x="174" y="-12"/>
		</contour>
	</outline>
</glyph>
<glyph name="J" format="2">
	<advance width="393"/>
	<unicode hex="004A"/>
	<anchor x="182" y="0" name="bottom"/>
	<anchor x="213" y="692" name="top"/>
	<outline>
		<contour>
			<point x="28" y="-180" type="line"/>
			<point x="162" y="-160"/>
			<point x="298" y="-74"/>
			<point x="298" y="90" type="curve" smooth="yes"/>
			<point x="298" y="692" type="line" name="_corner01"/>
			<point x="125" y="692" type="line" name="_corner00"/>
			<point x="125" y="12" type="line" smooth="yes"/>
			<point x="125" y="-73"/>
			<point x="102" y="-135"/>
			<point x="21" y="-157" type="curve"/>
		</contour>
	</outline>
</glyph>
<glyph name="K" format="2">
	<advance width="788"/>
	<unicode hex="004B"/>
	<anchor x="409" y="0" name="bottom"/>
	<anchor x="409" y="692" name="top"/>
	<outline>
		<contour>
			<point x="120" y="0" type="line" name="_corner03"/>
			<point x="293" y="0" type="line" name="_corner00"/>
			<point x="293" y="692" type="line" name="_corner01"/>
			<point x="120" y="692" type="line" name="_corner02"/>
		</contour>
		<contour>
			<point x="511" y="0" type="line"/>
			<point x="778" y="0" type="line"/>
			<point x="778" y="20" type="line"/>
			<point x="731" y="22"/>
			<point x="674" y="75"/>
			<point x="647" y="120" type="curve" smooth="yes"/>
			<point x="448" y="451" type="line"/>
			<point x="330" y="320" type="line"/>
		</contour>
		<contour>
			<point x="255" y="224" type="line"/>
			<point x="550" y="543" type="line" smooth="yes"/>
			<point x="622" y="621"/>
			<point x="675" y="672"/>
			<point x="725" y="672" type="curve"/>
			<point x="725" y="692" type="line"/>
			<point x="496" y="692" type="line"/>
			<point x="496" y="672" type="line"/>
			<point x="533" y="672"/>
			<point x="568" y="664"/>
			<point x="568" y="638" type="curve" smooth="yes"/>
			<point x="568" y="618"/>
			<point x="562" y="594"/>
			<point x="517" y="545" type="curve" smooth="yes"/>
			<point x="255" y="263" type="line"/>
		</contour>
	</outline>
</glyph>
<glyph name="N" format="2">
	<advance width="788"/>
	<unicode hex="004E"/>
	<anchor x="394" y="0" name="bottom"/>
	<anchor x="394" y="692" name="top"/>
	<outline>
		<contour>
			<point x="637" y="-6" type="line" name="🔥"/>
			<point x="665" y="-6" type="line"/>
			<point x="665" y="602" type="line" smooth="yes"/>
			<point x="665" y="666"/>
			<point x="712" y="672"/>
			<point x="770" y="672" type="curve"/>
			<point x="770" y="692" type="line"/>
			<point x="533" y="692" type="line"/>
			<point x="533" y="672" type="line"/>
			<point x="591" y="672"/>
			<point x="638" y="666"/>
			<point x="638" y="602" type="curve" smooth="yes"/>
			<point x="638" y="189" type="line"/>
			<point x="656" y="240" type="line"/>
			<point x="297" y="692" type="line"/>
			<point x="51" y="692" type="line"/>
			<point x="51" y="672" type="line"/>
			<point x="98" y="663"/>
			<point x="121" y="648"/>
			<point x="162" y="599" type="curve"/>
		</contour>
		<contour>
			<point x="50" y="0" type="line"/>
			<point x="290" y="0" type="line"/>
			<point x="290" y="20" type="line"/>
			<point x="232" y="20"/>
			<point x="185" y="26"/>
			<point x="185" y="90" type="curve" smooth="yes"/>
			<point x="185" y="641" type="line"/>
			<point x="155" y="659" type="line"/>
			<point x="155" y="90" type="line" smooth="yes"/>
			<point x="155" y="26"/>
			<point x="108" y="20"/>
			<point x="50" y="20" type="curve"/>
		</contour>
	</outline>
</glyph>
<glyph name="O" format="2">
	<advance width="800"/>
	<unicode hex="004F"/>
	<anchor x="400" y="0" name="bottom"/>
	<anchor x="400" y="350" name="center"/>
	<anchor x="712" y="10" name="ogonek"/>
	<anchor x="356" y="0" name="tail"/>
	<anchor x="400" y="692" name="top"/>
	<anchor x="30" y="692" name="topleft"/>
	<anchor x="510" y="692" name="topright"/>
	<outline>
		<contour>
			<point x="400" y="-16" type="curve" smooth="yes"/>
			<point x="590" y="-16"/>
			<point x="760" y="121"/>
			<point x="760" y="351" type="curve" smooth="yes"/>
			<point x="760" y="581"/>
			<point x="590" y="708"/>
			<point x="400" y="708" type="curve" smooth="yes"/>
			<point x="210" y="708"/>
			<point x="40" y="574"/>
			<point x="40" y="344" type="curve" smooth="yes"/>
			<point x="40" y="114"/>
			<point x="210" y="-16"/>
		</contour>
		<contour>
			<point x="411" y="4" type="curve" smooth="yes"/>
			<point x="291" y="4"/>
			<point x="229" y="159"/>
			<point x="229" y="385" type="curve" smooth="yes"/>
			<point x="229" y="611"/>
			<point x="289" y="688"/>
			<point x="389" y="688" type="curve" smooth="yes"/>
			<point x="509" y="688"/>
			<point x="571" y="533"/>
			<point x="571" y="307" type="curve" smooth="yes"/>
			<point x="571" y="81"/>
			<point x="511" y="4"/>
		</contour>
	</outline>
</glyph>
<glyph name="X" format="2">
	<advance width="772"/>
	<unicode hex="0058"/>
	<anchor x="381" y="0" name="bottom"/>
	<anchor x="405" y="692" name="top"/>
	<outline>
		<contour>
			<point x="376" y="0" type="line"/>
			<point x="762" y="0" type="line"/>
			<point x="762" y="20" type="line"/>
			<point x="714" y="20"/>
			<point x="654" y="53"/>
			<point x="619" y="110" type="curve" smooth="yes"/>
			<point x="327" y="582" type="line" smooth="yes"/>
			<point x="293" y="637"/>
			<point x="318" y="672"/>
			<point x="390" y="672" type="curve"/>
			<point x="390" y="692" type="line"/>
			<point x="10" y="692" type="line"/>
			<point x="10" y="672" type="line"/>
			<point x="52" y="672"/>
			<point x="79" y="654"/>
			<point x="99" y="622" type="curve" smooth="yes"/>
			<point x="432" y="93" type="line" smooth="yes"/>
			<point x="460" y="48"/>
			<point x="441" y="20"/>
			<point x="376" y="20" type="curve"/>
		</contour>
		<contour>
			<point x="12" y="0" type="line"/>
			<point x="228" y="0" type="line"/>
			<point x="228" y="20" type="line"/>
			<point x="158" y="20"/>
			<point x="142" y="53"/>
			<point x="170" y="90" type="curve" smooth="yes"/>
			<point x="341" y="310" type="line"/>
			<point x="332" y="339" type="line"/>
			<point x="146" y="97" type="line" smooth="yes"/>
			<point x="102" y="39"/>
			<point x="59" y="20"/>
			<point x="12" y="20" type="curve"/>
		</contour>
		<contour>
			<point x="391" y="338" type="line"/>
			<point x="613" y="617" type="line" smooth="yes"/>
			<point x="644" y="656"/>
			<point x="676" y="672"/>
			<point x="727" y="672" type="curve"/>
			<point x="727" y="692" type="line"/>
			<point x="504" y="692" type="line"/>
			<point x="504" y="672" type="line"/>
			<point x="573" y="672"/>
			<point x="599" y="638"/>
			<point x="559" y="587" type="curve" smooth="yes"/>
			<point x="385" y="368" type="line"/>
		</contour>
	</outline>
</glyph>
<glyph name="Y" format="2">
	<advance width="717"/>
	<unicode hex="0059"/>
	<anchor x="354" y="0" name="bottom"/>
	<anchor x="422" y="692" name="top"/>
	<anchor x="20" y="692" name="topleft"/>
	<outline>
		<contour>
			<point x="275" y="0" type="line" name="_corner00"/>
			<point x="448" y="0" type="line" name="_corner01"/>
			<point x="448" y="287" type="line"/>
			<point x="597" y="592" type="line" smooth="yes"/>
			<point x="631" y="662"/>
			<point x="654" y="672"/>
			<point x="702" y="672" type="curve"/>
			<point x="702" y="692" type="line"/>
			<point x="513" y="692" type="line"/>
			<point x="513" y="672" type="line"/>
			<point x="567" y="672"/>
			<point x="602" y="652"/>
			<point x="579" y="605" type="curve" smooth="yes"/>
			<point x="437" y="317" type="line"/>
			<point x="430" y="317" type="line"/>
			<point x="301" y="597" type="line" smooth="yes"/>
			<point x="278" y="647"/>
			<point x="304" y="672"/>
			<point x="361" y="672" type="curve"/>
			<point x="361" y="692" type="line"/>
			<point x="15" y="692" type="line"/>
			<point x="15" y="672" type="line"/>
			<point x="68" y="672"/>
			<point x="83" y="662"/>
			<point x="107" y="615" type="curve" smooth="yes"/>
			<point x="275" y="287" type="line"/>
		</contour>
	</outline>
</glyph>
<glyph name="Z" format="2">
	<advance width="630"/>
	<unicode hex="005A"/>
	<anchor x="330" y="0" name="bottom"/>
	<anchor x="330" y="350" name="center"/>
	<anchor x="330" y="692" name="top"/>
	<outline>
		<contour>
			<point x="44" y="0" type="line"/>
			<point x="566" y="0" type="line"/>
			<point x="597" y="234" type="line"/>
			<point x="578" y="234" type="line"/>
			<point x="539" y="95"/>
			<point x="473" y="22"/>
			<point x="407" y="22" type="curve" smooth="yes"/>
			<point x="205" y="22" type="line"/>
			<point x="215" y="8" type="line"/>
			<point x="594" y="672" type="line"/>
			<point x="584" y="692" type="line"/>
			<point x="64" y="692" type="line"/>
			<point x="37" y="453" type="line"/>
			<point x="56" y="453" type="line"/>
			<point x="86" y="615"/>
			<point x="148" y="670"/>
			<point x="214" y="670" type="curve" smooth="yes"/>
			<point x="416" y="670" type="line"/>
			<point x="409" y="682" type="line"/>
			<point x="34" y="20" type="line"/>
		</contour>
	</outline>
</glyph>
<glyph name="bracketleft" format="2">
	<advance width="360"/>
	<unicode hex="005B"/>
	<outline>
		<contour>
			<point x="70" y="-180" type="line"/>
			<point x="350" y="-180" type="line"/>
			<point x="350" y="-158" type="line"/>
			<point x="305" y="-158" type="line" smooth="yes"/>
			<point x="257" y="-158"/>
			<point x="240" y="-127"/>
			<point x="240" y="-95" type="curve" smooth="yes"/>
			<point x="240" y="674" type="line" smooth="yes"/>
			<point x="240" y="717"/>
			<point x="269" y="738"/>
			<point x="305" y="738" type="curve" smooth="yes"/>
			<point x="350" y="738" type="line"/>
			<point x="350" y="760" type="line"/>
			<point x="70" y="760" type="line"/>
		</contour>
	</outline>
</glyph>
<glyph name="underscore" format="2">
	<advance width="418"/>
	<unicode hex="005F"/>
	<outline>
		<contour>
			<point x="0" y="-72" type="line"/>
			<point x="418" y="-72" type="line"/>
			<point x="418" y="-20" type="line"/>
			<point x="0" y="-20" type="line"/>
		</contour>
	</outline>
</glyph>
<glyph name="c" format="2">
	<advance width="526"/>
	<unicode hex="0063"/>
	<anchor x="289" y="0" name="bottom"/>
	<anchor x="299" y="490" name="top"/>
	<outline>
		<contour>
			<point x="290" y="-16" type="curve" smooth="yes"/>
			<point x="401" y="-16"/>
			<point x="478" y="47"/>
			<point x="509" y="123" type="curve"/>
			<point x="496" y="133" type="line"/>
			<point x="465" y="76"/>
			<point x="420" y="44"/>
			<point x="361" y="44" type="curve" smooth="yes"/>
			<point x="286" y="44"/>
			<point x="213" y="80"/>
			<point x="213" y="277" type="curve" smooth="yes"/>
			<point x="213" y="426"/>
			<point x="255" y="492"/>
			<point x="327" y="492" type="curve" smooth="yes"/>
			<point x="392" y="492"/>
			<point x="455" y="438"/>
			<point x="464" y="316" type="curve"/>
			<point x="483" y="316" type="line"/>
			<point x="476" y="467" type="line"/>
			<point x="442" y="490"/>
			<point x="396" y="510"/>
			<point x="319" y="510" type="curve" smooth="yes"/>
			<point x="142" y="510"/>
			<point x="40" y="409"/>
			<point x="40" y="239" type="curve" smooth="yes"/>
			<point x="40" y="72"/>
			<point x="163" y="-16"/>
		</contour>
	</outline>
</glyph>
<glyph name="e" format="2">
	<advance width="560"/>
	<unicode hex="0065"/>
	<anchor x="281" y="0" name="bottom"/>
	<anchor x="437" y="10" name="ogonek"/>
	<anchor x="299" y="490" name="top"/>
	<outline>
		<contour>
			<point x="298" y="-16" type="curve" smooth="yes"/>
			<point x="397" y="-16"/>
			<point x="476" y="27"/>
			<point x="527" y="130" type="curve"/>
			<point x="516" y="138" type="line"/>
			<point x="488" y="84"/>
			<point x="432" y="55"/>
			<point x="367" y="55" type="curve" smooth="yes"/>
			<point x="261" y="55"/>
			<point x="211" y="132"/>
			<point x="211" y="297" type="curve" smooth="yes"/>
			<point x="211" y="437"/>
			<point x="247" y="493"/>
			<point x="300" y="493" type="curve" smooth="yes"/>
			<point x="360" y="493"/>
			<point x="375" y="431"/>
			<point x="370" y="288" type="curve"/>
			<point x="391" y="294" type="line"/>
			<point x="184" y="294" type="line"/>
			<point x="184" y="274" type="line"/>
			<point x="528" y="274" type="line"/>
			<point x="537" y="451"/>
			<point x="441" y="510"/>
			<point x="306" y="510" type="curve" smooth="yes"/>
			<point x="141" y="510"/>
			<point x="40" y="395"/>
			<point x="40" y="241" type="curve" smooth="yes"/>
			<point x="40" y="81"/>
			<point x="149" y="-16"/>
		</contour>
	</outline>
</glyph>
<glyph name="f" format="2">
	<advance width="397"/>
	<unicode hex="0066"/>
	<anchor x="200" y="0" name="bottom"/>
	<anchor x="200" y="730" name="top"/>
	<outline>
		<contour>
			<point x="78" y="0" type="line" name="_corner00"/>
			<point x="245" y="0" type="line" name="_corner01"/>
			<point x="245" y="490" type="line" name="🧨"/>
			<point x="217" y="511"/>
			<point x="183" y="548"/>
			<point x="183" y="619" type="curve" smooth="yes"/>
			<point x="183" y="698"/>
			<point x="222" y="729"/>
			<point x="267" y="729" type="curve" smooth="yes"/>
			<point x="333" y="729"/>
			<point x="369" y="660"/>
			<point x="369" y="577" type="curve"/>
			<point x="387" y="577" type="line"/>
			<point x="387" y="722" type="line"/>
			<point x="355" y="736"/>
			<point x="320" y="746"/>
			<point x="275" y="746" type="curve" smooth="yes"/>
			<point x="154" y="746"/>
			<point x="78" y="674"/>
			<point x="78" y="567" type="curve" smooth="yes"/>
		</contour>
		<contour>
			<point x="8" y="468" type="line"/>
			<point x="359" y="468" type="line"/>
			<point x="359" y="490" type="line"/>
			<point x="78" y="490" type="line" name="🧨"/>
			<point x="8" y="482" type="line"/>
		</contour>
	</outline>
</glyph>
<glyph name="h" format="2">
	<advance width="647"/>
	<unicode hex="0068"/>
	<anchor x="312" y="31" name="bottom"/>
	<anchor x="168" y="554" name="center"/>
	<anchor x="164" y="730" name="top"/>
	<outline>
		<contour>
			<point x="81" y="0" type="line" name="_corner00"/>
			<point x="248" y="0" type="line" name="_corner02"/>
			<point x="248" y="396" type="line"/>
			<point x="260" y="417"/>
			<point x="288" y="439"/>
			<point x="332" y="439" type="curve" smooth="yes"/>
			<point x="381" y="439"/>
			<point x="398" y="412"/>
			<point x="398" y="332" type="curve" smooth="yes"/>
			<point x="398" y="0" type="line" name="_corner01"/>
			<point x="565" y="0" type="line" name="_corner03"/>
			<point x="565" y="351" type="line" smooth="yes"/>
			<point x="565" y="445"/>
			<point x="505" y="510"/>
			<point x="410" y="510" type="curve" smooth="yes"/>
			<point x="324" y="510"/>
			<point x="262" y="457"/>
			<point x="226" y="390" type="curve"/>
			<point x="248" y="404" type="line"/>
			<point x="248" y="730" type="line"/>
			<point x="232" y="730" type="line"/>
			<point x="11" y="645" type="line"/>
			<point x="11" y="629" type="line"/>
			<point x="69" y="636"/>
			<point x="81" y="623"/>
			<point x="81" y="530" type="curve" smooth="yes"/>
		</contour>
	</outline>
</glyph>
<glyph name="m" format="2">
	<advance width="941"/>
	<unicode hex="006D"/>
	<anchor x="474" y="0" name="bottom"/>
	<anchor x="474" y="494" name="top"/>
	<outline>
		<contour>
			<point x="78" y="0" type="line" name="_corner03"/>
			<point x="245" y="0" type="line" name="_corner00"/>
			<point x="245" y="404" type="line"/>
			<point x="260" y="429"/>
			<point x="290" y="439"/>
			<point x="317" y="439" type="curve" smooth="yes"/>
			<point x="378" y="439"/>
			<point x="385" y="389"/>
			<point x="385" y="323" type="curve" smooth="yes"/>
			<point x="385" y="0" type="line" name="_corner01"/>
			<point x="552" y="0" type="line" name="_corner02"/>
			<point x="552" y="342" type="line" smooth="yes"/>
			<point x="552" y="455"/>
			<point x="487" y="510"/>
			<point x="399" y="510" type="curve" smooth="yes"/>
			<point x="308" y="510"/>
			<point x="246" y="452"/>
			<point x="217" y="400" type="curve"/>
			<point x="240" y="388" type="line"/>
			<point x="201" y="508" type="line"/>
			<point x="10" y="431" type="line"/>
			<point x="10" y="413" type="line"/>
			<point x="50" y="416"/>
			<point x="78" y="419"/>
			<point x="78" y="335" type="curve" smooth="yes"/>
		</contour>
		<contour>
			<point x="692" y="0" type="line" name="_corner04"/>
			<point x="859" y="0" type="line" name="_corner05"/>
			<point x="859" y="351" type="line" smooth="yes"/>
			<point x="859" y="445"/>
			<point x="799" y="510"/>
			<point x="703" y="510" type="curve" smooth="yes"/>
			<point x="618" y="510"/>
			<point x="556" y="457"/>
			<point x="526" y="399" type="curve"/>
			<point x="532" y="376" type="line" name="🧨"/>
			<point x="558" y="423"/>
			<point x="593" y="438"/>
			<point x="627" y="438" type="curve" smooth="yes"/>
			<point x="667" y="438"/>
			<point x="692" y="417"/>
			<point x="692" y="339" type="curve" smooth="yes"/>
		</contour>
	</outline>
</glyph>
<glyph name="q" format="2">
	<advance width="616"/>
	<unicode hex="0071"/>
	<anchor x="310" y="0" name="bottom"/>
	<anchor x="310" y="494" name="top"/>
	<outline>
		<contour>
			<point x="387" y="-208" type="line" name="_corner00"/>
			<point x="554" y="-208" type="line" name="_corner01"/>
			<point x="554" y="503" type="line"/>
			<point x="547" y="511" type="line"/>
			<point x="410" y="472" type="line"/>
			<point x="370" y="503"/>
			<point x="332" y="510"/>
			<point x="294" y="510" type="curve" smooth="yes"/>
			<point x="145" y="510"/>
			<point x="40" y="403"/>
			<point x="40" y="232" type="curve" smooth="yes"/>
			<point x="40" y="89"/>
			<point x="114" y="-16"/>
			<point x="232" y="-16" type="curve" smooth="yes"/>
			<point x="312" y="-16"/>
			<point x="365" y="33"/>
			<point x="400" y="93" type="curve"/>
			<point x="387" y="79" type="line"/>
		</contour>
		<contour>
			<point x="305" y="55" type="curve" smooth="yes"/>
			<point x="254" y="55"/>
			<point x="213" y="100"/>
			<point x="213" y="273" type="curve" smooth="yes"/>
			<point x="213" y="423"/>
			<point x="244" y="494"/>
			<point x="309" y="494" type="curve" smooth="yes"/>
			<point x="345" y="494"/>
			<point x="370" y="472"/>
			<point x="387" y="437" type="curve"/>
			<point x="387" y="100" type="line"/>
			<point x="371" y="74"/>
			<point x="338" y="55"/>
		</contour>
	</outline>
</glyph>
<glyph name="r" format="2">
	<advance width="446"/>
	<unicode hex="0072"/>
	<anchor x="160" y="0" name="bottom"/>
	<anchor x="259" y="490" name="top"/>
	<outline>
		<contour>
			<point x="78" y="0" type="line" name="_corner01"/>
			<point x="245" y="0" type="line" name="_corner00"/>
			<point x="245" y="359" type="line"/>
			<point x="259" y="395"/>
			<point x="298" y="407"/>
			<point x="324" y="407" type="curve" smooth="yes"/>
			<point x="383" y="407"/>
			<point x="411" y="352"/>
			<point x="416" y="310" type="curve"/>
			<point x="435" y="310" type="line"/>
			<point x="435" y="494" type="line"/>
			<point x="419" y="505"/>
			<point x="398" y="510"/>
			<point x="378" y="510" type="curve" smooth="yes"/>
			<point x="283" y="510"/>
			<point x="231" y="396"/>
			<point x="229" y="336" type="curve"/>
			<point x="243" y="382" type="line"/>
			<point x="202" y="507" type="line"/>
			<point x="10" y="431" type="line"/>
			<point x="10" y="413" type="line"/>
			<point x="52" y="415"/>
			<point x="78" y="425"/>
			<point x="78" y="328" type="curve" smooth="yes"/>
		</contour>
	</outline>
</glyph>
<glyph name="t" format="2">
	<advance width="423"/>
	<unicode hex="0074"/>
	<anchor x="207" y="0" name="bottom"/>
	<anchor x="207" y="247" name="center"/>
	<anchor x="207" y="494" name="top"/>
	<anchor x="245" y="730" name="topright"/>
	<outline>
		<contour>
			<point x="404" y="470" type="line"/>
			<point x="404" y="490" type="line"/>
			<point x="245" y="490" type="line"/>
			<point x="245" y="681" type="line"/>
			<point x="223" y="681" type="line"/>
			<point x="221" y="611"/>
			<point x="140" y="490"/>
			<point x="17" y="490" type="curve"/>
			<point x="17" y="470" type="line"/>
			<point x="78" y="470" type="line"/>
			<point x="78" y="140" type="line" smooth="yes"/>
			<point x="78" y="39"/>
			<point x="133" y="-16"/>
			<point x="223" y="-16" type="curve" smooth="yes"/>
			<point x="290" y="-16"/>
			<point x="362" y="12"/>
			<point x="407" y="79" type="curve"/>
			<point x="391" y="93" type="line"/>
			<point x="372" y="65"/>
			<point x="339" y="44"/>
			<point x="305" y="44" type="curve" smooth="yes"/>
			<point x="245" y="44"/>
			<point x="245" y="115"/>
			<point x="245" y="174" type="curve" smooth="yes"/>
			<point x="245" y="470" type="line"/>
		</contour>
	</outline>
</glyph>
<glyph name="v" format="2">
	<advance width="560"/>
	<unicode hex="0076"/>
	<anchor x="288" y="0" name="bottom"/>
	<anchor x="306" y="490" name="top"/>
	<outline>
		<contour>
			<point x="259" y="-14" type="line"/>
			<point x="308" y="2" type="line"/>
			<point x="486" y="405" type="line" smooth="yes"/>
			<point x="506" y="450"/>
			<point x="524" y="472"/>
			<point x="550" y="472" type="curve"/>
			<point x="550" y="490" type="line"/>
			<point x="415" y="490" type="line"/>
			<point x="415" y="472" type="line"/>
			<point x="460" y="472"/>
			<point x="480" y="456"/>
			<point x="455" y="397" type="curve" smooth="yes"/>
			<point x="345" y="135" type="line"/>
			<point x="357" y="135" type="line"/>
			<point x="258" y="397" type="line" smooth="yes"/>
			<point x="236" y="455"/>
			<point x="254" y="472"/>
			<point x="316" y="472" type="curve"/>
			<point x="316" y="490" type="line"/>
			<point x="10" y="490" type="line"/>
			<point x="10" y="472" type="line"/>
			<point x="34" y="472"/>
			<point x="47" y="467"/>
			<point x="62" y="433" type="curve" smooth="yes"/>
		</contour>
	</outline>
</glyph>
<glyph name="x" format="2">
	<advance width="584"/>
	<unicode hex="0078"/>
	<anchor x="312" y="0" name="bottom"/>
	<anchor x="317" y="490" name="top"/>
	<outline>
		<contour>
			<point x="277" y="0" type="line"/>
			<point x="574" y="0" type="line"/>
			<point x="574" y="19" type="line"/>
			<point x="543" y="19"/>
			<point x="509" y="50"/>
			<point x="485" y="86" type="curve" smooth="yes"/>
			<point x="276" y="407" type="line" smooth="yes"/>
			<point x="252" y="443"/>
			<point x="254" y="472"/>
			<point x="307" y="472" type="curve"/>
			<point x="307" y="490" type="line"/>
			<point x="10" y="490" type="line"/>
			<point x="10" y="472" type="line"/>
			<point x="40" y="472"/>
			<point x="59" y="459"/>
			<point x="74" y="436" type="curve" smooth="yes"/>
			<point x="317" y="63" type="line" smooth="yes"/>
			<point x="332" y="41"/>
			<point x="331" y="19"/>
			<point x="291" y="19" type="curve" smooth="yes"/>
			<point x="277" y="19" type="line"/>
		</contour>
		<contour>
			<point x="16" y="0" type="line"/>
			<point x="198" y="0" type="line"/>
			<point x="198" y="18" type="line"/>
			<point x="187" y="18" type="line" smooth="yes"/>
			<point x="153" y="18"/>
			<point x="128" y="47"/>
			<point x="158" y="89" type="curve" smooth="yes"/>
			<point x="246" y="214" type="line"/>
			<point x="249" y="253" type="line"/>
			<point x="134" y="103" type="line" smooth="yes"/>
			<point x="89" y="45"/>
			<point x="50" y="18"/>
			<point x="16" y="18" type="curve"/>
		</contour>
		<contour>
			<point x="309" y="215" type="line"/>
			<point x="473" y="438" type="line" smooth="yes"/>
			<point x="489" y="460"/>
			<point x="518" y="473"/>
			<point x="564" y="473" type="curve"/>
			<point x="564" y="490" type="line"/>
			<point x="393" y="490" type="line"/>
			<point x="393" y="473" type="line"/>
			<point x="443" y="473"/>
			<point x="449" y="446"/>
			<point x="422" y="408" type="curve" smooth="yes"/>
			<point x="304" y="241" type="line"/>
		</contour>
	</outline>
</glyph>
<glyph name="y" format="2">
	<advance width="576"/>
	<unicode hex="0079"/>
	<anchor x="406" y="0" name="bottom"/>
	<anchor x="338" y="490" name="top"/>
	<outline>
		<contour>
			<point x="50" y="-220" type="line"/>
			<point x="160" y="-212"/>
			<point x="239" y="-153"/>
			<point x="334" y="50" type="curve" smooth="yes"/>
			<point x="514" y="436" type="line" smooth="yes"/>
			<point x="524" y="458"/>
			<point x="540" y="472"/>
			<point x="566" y="472" type="curve"/>
			<point x="566" y="490" type="line"/>
			<point x="430" y="490" type="line"/>
			<point x="430" y="472" type="line"/>
			<point x="473" y="472"/>
			<point x="488" y="447"/>
			<point x="466" y="397" type="curve" smooth="yes"/>
			<point x="324" y="78" type="line"/>
			<point x="363" y="131" type="line"/>
			<point x="263" y="397" type="line" smooth="yes"/>
			<point x="243" y="450"/>
			<point x="261" y="472"/>
			<point x="323" y="472" type="curve"/>
			<point x="323" y="490" type="line"/>
			<point x="10" y="490" type="line"/>
			<point x="10" y="472" type="line"/>
			<point x="26" y="472"/>
			<point x="48" y="466"/>
			<point x="62" y="433" type="curve" smooth="yes"/>
			<point x="274" y="-51" type="line"/>
			<point x="305" y="34" type="line"/>
			<point x="235" y="-98"/>
			<point x="180" y="-155"/>
			<point x="118" y="-155" type="curve" smooth="yes"/>
			<point x="91" y="-155"/>
			<point x="59" y="-146"/>
			<point x="29" y="-77" type="curve"/>
			<point x="11" y="-84" type="line"/>
		</contour>
	</outline>
</glyph>
<glyph name="asciitilde" format="2">
	<advance width="600"/>
	<unicode hex="007E"/>
	<outline>
		<contour>
			<point x="137" y="212" type="line"/>
			<point x="153" y="271"/>
			<point x="177" y="293"/>
			<point x="212" y="293" type="curve" smooth="yes"/>
			<point x="277" y="293"/>
			<point x="314" y="216"/>
			<point x="389" y="216" type="curve" smooth="yes"/>
			<point x="440" y="216"/>
			<point x="477" y="250"/>
			<point x="500" y="321" type="curve"/>
			<point x="463" y="331" type="line"/>
			<point x="447" y="280"/>
			<point x="423" y="256"/>
			<point x="388" y="256" type="curve" smooth="yes"/>
			<point x="324" y="256"/>
			<point x="299" y="333"/>
			<point x="214" y="333" type="curve" smooth="yes"/>
			<point x="158" y="333"/>
			<point x="120" y="300"/>
			<point x="99" y="222" type="curve"/>
		</contour>
	</outline>
</glyph>
<glyph name="sterling" format="2">
	<advance width="600"/>
	<unicode hex="00A3"/>
	<outline>
		<contour>
			<point x="68" y="-12" type="line"/>
			<point x="121" y="9"/>
			<point x="175" y="18"/>
			<point x="222" y="18" type="curve" smooth="yes"/>
			<point x="308" y="18"/>
			<point x="346" y="-12"/>
			<point x="424" y="-12" type="curve" smooth="yes"/>
			<point x="519" y="-12"/>
			<point x="595" y="32"/>
			<point x="595" y="219" type="curve"/>
			<point x="573" y="219" type="line"/>
			<point x="573" y="121"/>
			<point x="532" y="104"/>
			<point x="479" y="104" type="curve" smooth="yes"/>
			<point x="413" y="104"/>
			<point x="394" y="131"/>
			<point x="338" y="131" type="curve" smooth="yes"/>
			<point x="267" y="131"/>
			<point x="204" y="88"/>
			<point x="118" y="18" type="curve"/>
			<point x="100" y="18" type="line"/>
			<point x="230" y="84"/>
			<point x="345" y="171"/>
			<point x="345" y="277" type="curve" smooth="yes"/>
			<point x="345" y="361"/>
			<point x="274" y="419"/>
			<point x="274" y="526" type="curve" smooth="yes"/>
			<point x="274" y="575"/>
			<point x="289" y="638"/>
			<point x="370" y="638" type="curve" smooth="yes"/>
			<point x="447" y="638"/>
			<point x="505" y="581"/>
			<point x="505" y="460" type="curve"/>
			<point x="527" y="460" type="line"/>
			<point x="531" y="613" type="line"/>
			<point x="477" y="643"/>
			<point x="421" y="660"/>
			<point x="347" y="660" type="curve" smooth="yes"/>
			<point x="174" y="660"/>
			<point x="85" y="569"/>
			<point x="85" y="460" type="curve" smooth="yes"/>
			<point x="85" y="356"/>
			<point x="165" y="309"/>
			<point x="165" y="199" type="curve" smooth="yes"/>
			<point x="165" y="126"/>
			<point x="130" y="61"/>
			<point x="55" y="6" type="curve"/>
		</contour>
		<contour>
			<point x="60" y="296" type="line"/>
			<point x="430" y="296" type="line"/>
			<point x="430" y="318" type="line"/>
			<point x="60" y="318" type="line"/>
		</contour>
	</outline>
</glyph>
<glyph name="brokenbar" format="2">
	<advance width="200"/>
	<unicode hex="00A6"/>
	<outline>
		<contour>
			<point x="80" y="345" type="line"/>
			<point x="120" y="345" type="line"/>
			<point x="120" y="730" type="line"/>
			<point x="80" y="730" type="line"/>
		</contour>
		<contour>
			<point x="80" y="-140" type="line"/>
			<point x="120" y="-140" type="line"/>
			<point x="120" y="245" type="line"/>
			<point x="80" y="245" type="line"/>
		</contour>
	</outline>
</glyph>
<glyph name="ordfeminine" format="2">
	<advance width="317"/>
	<unicode hex="00AA"/>
	<outline>
		<contour>
			<point x="95" y="350" type="curve" smooth="yes"/>
			<point x="124" y="350"/>
			<point x="157" y="367"/>
			<point x="170" y="408" type="curve"/>
			<point x="173" y="408" type="line"/>
			<point x="199" y="349" type="line"/>
			<point x="302" y="375" type="line"/>
			<point x="302" y="390" type="line"/>
			<point x="273" y="385"/>
			<point x="263" y="401"/>
			<point x="263" y="425" type="curve" smooth="yes"/>
			<point x="263" y="512" type="line" smooth="yes"/>
			<point x="263" y="571"/>
			<point x="222" y="610"/>
			<point x="154" y="610" type="curve" smooth="yes"/>
			<point x="94" y="610"/>
			<point x="48" y="580"/>
			<point x="35" y="518" type="curve"/>
			<point x="47" y="515" type="line"/>
			<point x="61" y="551"/>
			<point x="83" y="567"/>
			<point x="115" y="567" type="curve" smooth="yes"/>
			<point x="152" y="567"/>
			<point x="166" y="546"/>
			<point x="166" y="516" type="curve" smooth="yes"/>
			<point x="166" y="417" type="line"/>
			<point x="162" y="409"/>
			<point x="155" y="403"/>
			<point x="146" y="403" type="curve" smooth="yes"/>
			<point x="133" y="403"/>
			<point x="126" y="413"/>
			<point x="126" y="433" type="curve" smooth="yes"/>
			<point x="126" y="463"/>
			<point x="139" y="479"/>
			<point x="198" y="492" type="curve"/>
			<point x="198" y="505" type="line"/>
			<point x="78" y="482"/>
			<point x="28" y="462"/>
			<point x="28" y="412" type="curve" smooth="yes"/>
			<point x="28" y="370"/>
			<point x="63" y="350"/>
		</contour>
	</outline>
</glyph>
<glyph name="twosuperior" format="2">
	<advance width="343"/>
	<unicode hex="00B2"/>
	<outline>
		<contour>
			<point x="40" y="387" type="line"/>
			<point x="289" y="387" type="line"/>
			<point x="303" y="512" type="line"/>
			<point x="285" y="512" type="line"/>
			<point x="273" y="466"/>
			<point x="248" y="454"/>
			<point x="204" y="454" type="curve" smooth="yes"/>
			<point x="103" y="454" type="line"/>
			<point x="63" y="426" type="line"/>
			<point x="168" y="489" type="line" smooth="yes"/>
			<point x="248" y="537"/>
			<point x="284" y="573"/>
			<point x="284" y="620" type="curve" smooth="yes"/>
			<point x="284" y="672"/>
			<point x="241" y="704"/>
			<point x="176" y="704" type="curve" smooth="yes"/>
			<point x="104" y="704"/>
			<point x="62" y="664"/>
			<point x="42" y="596" type="curve"/>
			<point x="60" y="593" type="line"/>
			<point x="74" y="628"/>
			<point x="90" y="648"/>
			<point x="122" y="648" type="curve" smooth="yes"/>
			<point x="144" y="648"/>
			<point x="168" y="638"/>
			<point x="168" y="584" type="curve" smooth="yes"/>
			<point x="168" y="542"/>
			<point x="153" y="503"/>
			<point x="87" y="455" type="curve" smooth="yes"/>
			<point x="35" y="417" type="line"/>
		</contour>
	</outline>
</glyph>
<glyph name="threesuperior" format="2">
	<advance width="331"/>
	<unicode hex="00B3"/>
	<outline>
		<contour>
			<point x="100" y="525" type="line"/>
			<point x="116" y="537"/>
			<point x="130" y="541"/>
			<point x="143" y="541" type="curve" smooth="yes"/>
			<point x="172" y="541"/>
			<point x="181" y="516"/>
			<point x="181" y="490" type="curve" smooth="yes"/>
			<point x="181" y="437"/>
			<point x="144" y="406"/>
			<point x="38" y="401" type="curve"/>
			<point x="39" y="383" type="line"/>
			<point x="193" y="389"/>
			<point x="291" y="438"/>
			<point x="291" y="503" type="curve" smooth="yes"/>
			<point x="291" y="539"/>
			<point x="272" y="573"/>
			<point x="206" y="573" type="curve" smooth="yes"/>
			<point x="171" y="573"/>
			<point x="134" y="561"/>
			<point x="103" y="538" type="curve"/>
			<point x="112" y="536" type="line"/>
			<point x="277" y="679" type="line"/>
			<point x="274" y="692" type="line"/>
			<point x="57" y="692" type="line"/>
			<point x="35" y="586" type="line"/>
			<point x="53" y="582" type="line"/>
			<point x="61" y="611"/>
			<point x="73" y="625"/>
			<point x="105" y="625" type="curve" smooth="yes"/>
			<point x="211" y="625" type="line"/>
			<point x="229" y="657" type="line"/>
			<point x="90" y="540" type="line"/>
		</contour>
	</outline>
</glyph>
<glyph name="paragraph" format="2">
	<advance width="520"/>
	<unicode hex="00B6"/>
	<outline>
		<contour>
			<point x="242" y="-130" type="line"/>
			<point x="262" y="-130" type="line"/>
			<point x="262" y="672" type="line"/>
			<point x="402" y="672" type="line"/>
			<point x="402" y="-130" type="line"/>
			<point x="422" y="-130" type="line"/>
			<point x="422" y="672" type="line"/>
			<point x="487" y="672" type="line"/>
			<point x="487" y="692" type="line"/>
			<point x="242" y="692" type="line" smooth="yes"/>
			<point x="109" y="692"/>
			<point x="40" y="602"/>
			<point x="40" y="505" type="curve" smooth="yes"/>
			<point x="40" y="408"/>
			<point x="109" y="319"/>
			<point x="242" y="319" type="curve"/>
		</contour>
	</outline>
</glyph>
<glyph name="onesuperior" format="2">
	<advance width="306"/>
	<unicode hex="00B9"/>
	<outline>
		<contour>
			<point x="39" y="387" type="line"/>
			<point x="296" y="387" type="line"/>
			<point x="296" y="405" type="line"/>
			<point x="246" y="405"/>
			<point x="226" y="421"/>
			<point x="226" y="458" type="curve" smooth="yes"/>
			<point x="226" y="692" type="line"/>
			<point x="210" y="692" type="line"/>
			<point x="30" y="620" type="line"/>
			<point x="35" y="602" type="line"/>
			<point x="49" y="607"/>
			<point x="66" y="612"/>
			<point x="80" y="612" type="curve" smooth="yes"/>
			<point x="97" y="612"/>
			<point x="109" y="603"/>
			<point x="109" y="577" type="curve" smooth="yes"/>
			<point x="109" y="458" type="line" smooth="yes"/>
			<point x="109" y="421"/>
			<point x="89" y="405"/>
			<point x="39" y="405" type="curve"/>
		</contour>
	</outline>
</glyph>
<glyph name="ae" format="2">
	<advance width="819"/>
	<unicode hex="00E6"/>
	<anchor x="821" y="0" name="bottom"/>
	<anchor x="977" y="10" name="ogonek"/>
	<anchor x="839" y="490" name="top"/>
	<outline>
		<contour>
			<point x="158" y="-16" type="curve" smooth="yes"/>
			<point x="257" y="-16"/>
			<point x="331" y="65"/>
			<point x="341" y="199" type="curve"/>
			<point x="317" y="194" type="line"/>
			<point x="336" y="62"/>
			<point x="430" y="-16"/>
			<point x="559" y="-16" type="curve" smooth="yes"/>
			<point x="655" y="-16"/>
			<point x="735" y="27"/>
			<point x="786" y="130" type="curve"/>
			<point x="775" y="138" type="line"/>
			<point x="747" y="84"/>
			<point x="691" y="55"/>
			<point x="626" y="55" type="curve" smooth="yes"/>
			<point x="520" y="55"/>
			<point x="470" y="132"/>
			<point x="470" y="297" type="curve" smooth="yes"/>
			<point x="470" y="436"/>
			<point x="505" y="493"/>
			<point x="561" y="493" type="curve" smooth="yes"/>
			<point x="620" y="493"/>
			<point x="635" y="429"/>
			<point x="628" y="280" type="curve"/>
			<point x="652" y="294" type="line"/>
			<point x="443" y="294" type="line"/>
			<point x="443" y="274" type="line"/>
			<point x="787" y="274" type="line"/>
			<point x="796" y="432"/>
			<point x="716" y="510"/>
			<point x="571" y="510" type="curve" smooth="yes"/>
			<point x="478" y="510"/>
			<point x="417" y="478"/>
			<point x="373" y="423" type="curve"/>
			<point x="436" y="410" type="line"/>
			<point x="404" y="483"/>
			<point x="342" y="510"/>
			<point x="274" y="510" type="curve" smooth="yes"/>
			<point x="171" y="510"/>
			<point x="70" y="451"/>
			<point x="46" y="323" type="curve"/>
			<point x="58" y="320" type="line"/>
			<point x="84" y="399"/>
			<point x="133" y="418"/>
			<point x="186" y="418" type="curve" smooth="yes"/>
			<point x="261" y="418"/>
			<point x="303" y="377"/>
			<point x="303" y="299" type="curve" smooth="yes"/>
			<point x="303" y="126" type="line"/>
			<point x="291" y="108"/>
			<point x="269" y="100"/>
			<point x="246" y="100" type="curve" smooth="yes"/>
			<point x="210" y="100"/>
			<point x="186" y="119"/>
			<point x="186" y="161" type="curve" smooth="yes"/>
			<point x="186" y="205"/>
			<point x="212" y="238"/>
			<point x="328" y="265" type="curve"/>
			<point x="328" y="281" type="line"/>
			<point x="153" y="252"/>
			<point x="28" y="205"/>
			<point x="28" y="99" type="curve" smooth="yes"/>
			<point x="28" y="27"/>
			<point x="86" y="-16"/>
		</contour>
	</outline>
</glyph>
<glyph name="eogonek" format="2">
	<advance width="560"/>
	<unicode hex="0119"/>
	<anchor x="281" y="0" name="bottom"/>
	<anchor x="437" y="10" name="ogonek"/>
	<anchor x="299" y="490" name="top"/>
	<outline>
		<contour>
			<point x="400" y="3" type="curve"/>
			<point x="409" y="10" type="line"/>
			<point x="291" y="-35"/>
			<point x="242" y="-89"/>
			<point x="242" y="-145" type="curve" smooth="yes"/>
			<point x="242" y="-197"/>
			<point x="283" y="-233"/>
			<point x="356" y="-233" type="curve" smooth="yes"/>
			<point x="409" y="-233"/>
			<point x="447" y="-214"/>
			<point x="482" y="-169" type="curve"/>
			<point x="476" y="-160" type="line"/>
			<point x="445" y="-191"/>
			<point x="427" y="-197"/>
			<point x="407" y="-197" type="curve" smooth="yes"/>
			<point x="371" y="-197"/>
			<point x="354" y="-173"/>
			<point x="354" y="-128" type="curve" smooth="yes"/>
			<point x="354" y="-80"/>
			<point x="374" y="-27"/>
			<point x="431" y="18" type="curve" smooth="yes"/>
			<point x="473" y="51"/>
			<point x="499" y="74"/>
			<point x="527" y="130" type="curve"/>
			<point x="516" y="138" type="line"/>
			<point x="488" y="84"/>
			<point x="432" y="55"/>
			<point x="367" y="55" type="curve" smooth="yes"/>
			<point x="261" y="55"/>
			<point x="211" y="132"/>
			<point x="211" y="297" type="curve" smooth="yes"/>
			<point x="211" y="438"/>
			<point x="247" y="493"/>
			<point x="302" y="493" type="curve" smooth="yes"/>
			<point x="360" y="493"/>
			<point x="375" y="431"/>
			<point x="370" y="288" type="curve"/>
			<point x="391" y="294" type="line"/>
			<point x="184" y="294" type="line"/>
			<point x="184" y="274" type="line"/>
			<point x="528" y="274" type="line"/>
			<point x="537" y="427"/>
			<point x="461" y="510"/>
			<point x="313" y="510" type="curve" smooth="yes"/>
			<point x="138" y="510"/>
			<point x="40" y="394"/>
			<point x="40" y="242" type="curve" smooth="yes"/>
			<point x="40" y="81"/>
			<point x="149" y="-16"/>
			<point x="298" y="-16" type="curve" smooth="yes"/>
			<point x="333" y="-16"/>
			<point x="366" y="-11"/>
		</contour>
	</outline>
</glyph>
<glyph name="florin" format="2">
	<advance width="514"/>
	<unicode hex="0192"/>
	<note>
		uni0192
	</note>
	<outline>
		<contour>
			<point x="6" y="-220" type="line"/>
			<point x="112" y="-208"/>
			<point x="259" y="-166"/>
			<point x="277" y="6" type="curve" smooth="yes"/>
			<point x="328" y="490" type="line" name="🧨"/>
			<point x="305" y="511"/>
			<point x="278" y="546"/>
			<point x="278" y="609" type="curve" smooth="yes"/>
			<point x="278" y="680"/>
			<point x="311" y="729"/>
			<point x="371" y="729" type="curve" smooth="yes"/>
			<point x="441" y="729"/>
			<point x="470" y="664"/>
			<point x="461" y="577" type="curve"/>
			<point x="479" y="577" type="line"/>
			<point x="494" y="722" type="line"/>
			<point x="461" y="736"/>
			<point x="423" y="746"/>
			<point x="376" y="746" type="curve" smooth="yes"/>
			<point x="250" y="746"/>
			<point x="180" y="674"/>
			<point x="169" y="567" type="curve" smooth="yes"/>
			<point x="111" y="19" type="line" smooth="yes"/>
			<point x="98" y="-104"/>
			<point x="90" y="-182"/>
			<point x="3" y="-202" type="curve"/>
		</contour>
		<contour>
			<point x="88" y="468" type="line"/>
			<point x="439" y="468" type="line"/>
			<point x="442" y="490" type="line"/>
			<point x="161" y="490" type="line" name="🧨"/>
			<point x="90" y="482" type="line"/>
		</contour>
	</outline>
</glyph>
<glyph name="Uhorn" format="2">
	<advance width="777"/>
	<unicode hex="01AF"/>
	<anchor x="405" y="0" name="bottom"/>
	<anchor x="524" y="10" name="ogonek"/>
	<anchor x="426" y="692" name="top"/>
	<anchor x="885" y="777" name="topright"/>
	<outline>
		<contour>
			<point x="380" y="-20" type="curve" smooth="yes"/>
			<point x="544" y="-20"/>
			<point x="640" y="75"/>
			<point x="640" y="259" type="curve" smooth="yes"/>
			<point x="640" y="692" type="line"/>
			<point x="613" y="692" type="line" name="_corner02"/>
			<point x="613" y="266" type="line" smooth="yes"/>
			<point x="613" y="140"/>
			<point x="565" y="18"/>
			<point x="433" y="18" type="curve" smooth="yes"/>
			<point x="306" y="18"/>
			<point x="278" y="131"/>
			<point x="278" y="261" type="curve" smooth="yes"/>
			<point x="278" y="692" type="line" name="_corner01"/>
			<point x="105" y="692" type="line" name="_corner00"/>
			<point x="105" y="243" type="line" smooth="yes"/>
			<point x="105" y="58"/>
			<point x="233" y="-20"/>
		</contour>
		<contour>
			<point x="627" y="675" type="line"/>
			<point x="719" y="675"/>
			<point x="809" y="710"/>
			<point x="809" y="784" type="curve" smooth="yes"/>
			<point x="809" y="801"/>
			<point x="804" y="818"/>
			<point x="796" y="830" type="curve"/>
			<point x="649" y="830" type="line"/>
			<point x="649" y="811" type="line"/>
			<point x="677" y="805"/>
			<point x="694" y="787"/>
			<point x="694" y="757" type="curve" smooth="yes"/>
			<point x="694" y="714"/>
			<point x="660" y="692"/>
			<point x="627" y="692" type="curve"/>
		</contour>
	</outline>
</glyph>
<glyph name="jdotless" format="2">
	<advance width="312"/>
	<unicode hex="0237"/>
	<anchor x="151" y="-208" name="bottom"/>
	<anchor x="174" y="490" name="top"/>
	<outline>
		<contour>
			<point x="10" y="-220" type="line"/>
			<point x="115" y="-208"/>
			<point x="257" y="-166"/>
			<point x="257" y="6" type="curve" smooth="yes"/>
			<point x="257" y="490" type="line"/>
			<point x="241" y="490" type="line"/>
			<point x="20" y="405" type="line"/>
			<point x="20" y="389" type="line"/>
			<point x="78" y="396"/>
			<point x="90" y="383"/>
			<point x="90" y="290" type="curve" smooth="yes"/>
			<point x="90" y="39" type="line" smooth="yes"/>
			<point x="90" y="-95"/>
			<point x="99" y="-178"/>
			<point x="5" y="-202" type="curve"/>
		</contour>
	</outline>
</glyph>
<glyph name="circumflexcomb" format="2">
	<advance width="442"/>
	<unicode hex="0302"/>
	<anchor x="222" y="490" name="_top"/>
	<anchor x="225" y="704" name="top"/>
	<anchor x="225" y="672" name="top_tilde"/>
	<anchor x="345" y="640" name="top_viet"/>
	<outline>
		<contour>
			<point x="213" y="733" type="line"/>
			<point x="75" y="558" type="line"/>
			<point x="89" y="544" type="line"/>
			<point x="221" y="617" type="line"/>
			<point x="353" y="544" type="line"/>
			<point x="367" y="558" type="line"/>
			<point x="231" y="733" type="line"/>
		</contour>
	</outline>
</glyph>
<glyph name="macroncomb" format="2">
	<advance width="388"/>
	<unicode hex="0304"/>
	<anchor x="194" y="490" name="_top"/>
	<anchor x="194" y="610" name="top"/>
	<outline>
		<contour>
			<point x="52" y="610" type="line"/>
			<point x="52" y="571" type="line"/>
			<point x="336" y="571" type="line"/>
			<point x="336" y="610" type="line"/>
		</contour>
	</outline>
</glyph>
<glyph name="dieresiscomb" format="2">
	<advance width="493"/>
	<unicode hex="0308"/>
	<anchor x="246" y="490" name="_top"/>
	<anchor x="246" y="718" name="top"/>
	<outline>
		<contour>
			<point x="133" y="544" type="curve" smooth="yes"/>
			<point x="185" y="544"/>
			<point x="224" y="585"/>
			<point x="224" y="634" type="curve" smooth="yes"/>
			<point x="224" y="682"/>
			<point x="185" y="723"/>
			<point x="133" y="723" type="curve" smooth="yes"/>
			<point x="87" y="723"/>
			<point x="45" y="682"/>
			<point x="45" y="634" type="curve" smooth="yes"/>
			<point x="45" y="585"/>
			<point x="87" y="544"/>
		</contour>
		<contour>
			<point x="356" y="544" type="curve" smooth="yes"/>
			<point x="406" y="544"/>
			<point x="448" y="585"/>
			<point x="448" y="634" type="curve" smooth="yes"/>
			<point x="448" y="682"/>
			<point x="406" y="723"/>
			<point x="356" y="723" type="curve" smooth="yes"/>
			<point x="308" y="723"/>
			<point x="269" y="682"/>
			<point x="269" y="634" type="curve" smooth="yes"/>
			<point x="269" y="585"/>
			<point x="308" y="544"/>
		</contour>
	</outline>
</glyph>
<glyph name="hookabovecomb" format="2">
	<advance width="351"/>
	<unicode hex="0309"/>
	<anchor x="188" y="490" name="_top"/>
	<anchor x="188" y="739" name="top"/>
	<outline>
		<contour>
			<point x="143" y="554" type="line"/>
			<point x="243" y="574"/>
			<point x="306" y="613"/>
			<point x="306" y="670" type="curve" smooth="yes"/>
			<point x="306" y="717"/>
			<point x="263" y="752"/>
			<point x="198" y="752" type="curve" smooth="yes"/>
			<point x="129" y="752"/>
			<point x="79" y="717"/>
			<point x="45" y="660" type="curve"/>
			<point x="62" y="650" type="line"/>
			<point x="92" y="692"/>
			<point x="118" y="700"/>
			<point x="141" y="700" type="curve" smooth="yes"/>
			<point x="177" y="700"/>
			<point x="194" y="679"/>
			<point x="194" y="642" type="curve" smooth="yes"/>
			<point x="194" y="602"/>
			<point x="173" y="581"/>
			<point x="137" y="568" type="curve"/>
		</contour>
	</outline>
</glyph>
<glyph name="ringcomb" format="2">
	<advance width="289"/>
	<unicode hex="030A"/>
	<anchor x="145" y="490" name="_top"/>
	<anchor x="145" y="704" name="top"/>
	<outline>
		<contour>
			<point x="143" y="543" type="curve" smooth="yes"/>
			<point x="197" y="543"/>
			<point x="236" y="582"/>
			<point x="236" y="632" type="curve" smooth="yes"/>
			<point x="236" y="681"/>
			<point x="197" y="720"/>
			<point x="143" y="720" type="curve" smooth="yes"/>
			<point x="90" y="720"/>
			<point x="51" y="681"/>
			<point x="51" y="632" type="curve" smooth="yes"/>
			<point x="51" y="582"/>
			<point x="90" y="543"/>
		</contour>
		<contour>
			<point x="143" y="569" type="curve" smooth="yes"/>
			<point x="105" y="569"/>
			<point x="80" y="597"/>
			<point x="80" y="632" type="curve" smooth="yes"/>
			<point x="80" y="666"/>
			<point x="105" y="695"/>
			<point x="143" y="695" type="curve" smooth="yes"/>
			<point x="183" y="695"/>
			<point x="206" y="666"/>
			<point x="206" y="632" type="curve" smooth="yes"/>
			<point x="206" y="598"/>
			<point x="183" y="569"/>
		</contour>
	</outline>
</glyph>
<glyph name="hungarumlautcomb" format="2">
	<advance width="600"/>
	<unicode hex="030B"/>
	<anchor x="236" y="490" name="_top"/>
	<anchor x="274" y="704" name="top"/>
	<outline>
		<contour>
			<point x="285" y="533" type="line"/>
			<point x="432" y="686" type="line"/>
			<point x="432" y="704" type="line"/>
			<point x="317" y="704" type="line"/>
			<point x="267" y="542" type="line"/>
		</contour>
		<contour>
			<point x="138" y="533" type="line"/>
			<point x="285" y="686" type="line"/>
			<point x="285" y="704" type="line"/>
			<point x="170" y="704" type="line"/>
			<point x="120" y="542" type="line"/>
		</contour>
	</outline>
</glyph>
<glyph name="horncomb" format="2">
	<advance width="272"/>
	<unicode hex="031B"/>
	<anchor x="55" y="490" name="_topright"/>
	<anchor x="283" y="575" name="topright"/>
	<outline>
		<contour>
			<point x="45" y="388" type="line"/>
			<point x="138" y="388"/>
			<point x="227" y="433"/>
			<point x="227" y="516" type="curve" smooth="yes"/>
			<point x="227" y="539"/>
			<point x="221" y="559"/>
			<point x="211" y="573" type="curve"/>
			<point x="67" y="573" type="line"/>
			<point x="67" y="554" type="line"/>
			<point x="94" y="546"/>
			<point x="112" y="524"/>
			<point x="112" y="485" type="curve" smooth="yes"/>
			<point x="112" y="431"/>
			<point x="78" y="405"/>
			<point x="45" y="405" type="curve"/>
		</contour>
	</outline>
</glyph>
<glyph name="ogonekcomb" format="2">
	<advance width="360"/>
	<unicode hex="0328"/>
	<anchor x="216" y="3" name="_ogonek"/>
	<outline>
		<contour>
			<point x="153" y="-223" type="curve" smooth="yes"/>
			<point x="213" y="-223"/>
			<point x="276" y="-198"/>
			<point x="315" y="-150" type="curve"/>
			<point x="309" y="-141" type="line"/>
			<point x="278" y="-172"/>
			<point x="244" y="-177"/>
			<point x="223" y="-177" type="curve" smooth="yes"/>
			<point x="185" y="-177"/>
			<point x="157" y="-159"/>
			<point x="157" y="-112" type="curve" smooth="yes"/>
			<point x="157" y="-87"/>
			<point x="165" y="-34"/>
			<point x="235" y="10" type="curve"/>
			<point x="221" y="10" type="line"/>
			<point x="83" y="-35"/>
			<point x="45" y="-93"/>
			<point x="45" y="-142" type="curve" smooth="yes"/>
			<point x="45" y="-193"/>
			<point x="87" y="-223"/>
		</contour>
	</outline>
</glyph>
<glyph name="slashshortcomb" format="2">
	<advance width="394"/>
	<unicode hex="0337"/>
	<anchor x="205" y="349" name="_center"/>
	<outline>
		<contour>
			<point x="45" y="259" type="line"/>
			<point x="57" y="240" type="line"/>
			<point x="349" y="431" type="line"/>
			<point x="336" y="450" type="line"/>
		</contour>
	</outline>
</glyph>
<glyph name="slashlongcomb" format="2">
	<advance width="467"/>
	<unicode hex="0338"/>
	<anchor x="234" y="243" name="_center"/>
	<outline>
		<contour>
			<point x="45" y="3" type="line"/>
			<point x="62" y="-10" type="line"/>
			<point x="422" y="483" type="line"/>
			<point x="405" y="496" type="line"/>
		</contour>
	</outline>
</glyph>
<glyph name="Delta" format="2">
	<advance width="595"/>
	<unicode hex="0394"/>
	<outline>
		<contour>
			<point x="10" y="0" type="line"/>
			<point x="585" y="0" type="line"/>
			<point x="585" y="20" type="line"/>
			<point x="337" y="711" type="line"/>
			<point x="278" y="710"/>
			<point x="265" y="698"/>
			<point x="235" y="680" type="curve"/>
			<point x="10" y="20" type="line"/>
		</contour>
		<contour>
			<point x="38" y="20" type="line"/>
			<point x="214" y="553" type="line"/>
			<point x="220" y="553" type="line"/>
			<point x="392" y="20" type="line"/>
		</contour>
	</outline>
</glyph>
<glyph name="mu" format="2">
	<advance width="631"/>
	<unicode hex="03BC"/>
	<outline>
		<contour>
			<point x="75" y="-187" type="line"/>
			<point x="226" y="-187" type="line"/>
			<point x="226" y="147" type="line"/>
			<point x="75" y="147" type="line" name="🧨"/>
		</contour>
		<contour>
			<point x="227" y="-16" type="curve" smooth="yes"/>
			<point x="321" y="-16"/>
			<point x="374" y="55"/>
			<point x="398" y="100" type="curve"/>
			<point x="386" y="93" type="line"/>
			<point x="411" y="-16" type="line"/>
			<point x="609" y="37" type="line"/>
			<point x="609" y="52" type="line"/>
			<point x="565" y="49"/>
			<point x="546" y="70"/>
			<point x="546" y="110" type="curve" smooth="yes"/>
			<point x="546" y="494" type="line"/>
			<point x="521" y="494" type="line"/>
			<point x="311" y="431" type="line"/>
			<point x="311" y="413" type="line"/>
			<point x="356" y="418"/>
			<point x="379" y="420"/>
			<point x="379" y="334" type="curve" smooth="yes"/>
			<point x="379" y="102" type="line"/>
			<point x="366" y="77"/>
			<point x="335" y="55"/>
			<point x="303" y="54" type="curve" smooth="yes"/>
			<point x="272" y="53"/>
			<point x="242" y="73"/>
			<point x="242" y="134" type="curve" smooth="yes"/>
			<point x="242" y="494" type="line"/>
			<point x="217" y="494" type="line"/>
			<point x="7" y="431" type="line"/>
			<point x="7" y="413" type="line"/>
			<point x="52" y="418"/>
			<point x="75" y="420"/>
			<point x="75" y="334" type="curve" smooth="yes"/>
			<point x="75" y="143" type="line" smooth="yes"/>
			<point x="75" y="49"/>
			<point x="133" y="-16"/>
		</contour>
	</outline>
</glyph>
<glyph name="pi" format="2">
	<advance width="590"/>
	<unicode hex="03C0"/>
	<outline>
		<contour>
			<point x="28" y="0" type="line"/>
			<point x="194" y="0" type="line"/>
			<point x="240" y="96"/>
			<point x="269" y="250"/>
			<point x="262" y="385" type="curve"/>
			<point x="238" y="385" type="line"/>
			<point x="217" y="185"/>
			<point x="107" y="62"/>
			<point x="28" y="15" type="curve"/>
		</contour>
		<contour>
			<point x="431" y="0" type="curve" smooth="yes"/>
			<point x="489" y="0"/>
			<point x="534" y="49"/>
			<point x="566" y="151" type="curve"/>
			<point x="553" y="159" type="line"/>
			<point x="530" y="138"/>
			<point x="509" y="129"/>
			<point x="481" y="129" type="curve" smooth="yes"/>
			<point x="436" y="129"/>
			<point x="404" y="151"/>
			<point x="404" y="216" type="curve" smooth="yes"/>
			<point x="404" y="271"/>
			<point x="426" y="338"/>
			<point x="443" y="385" type="curve"/>
			<point x="418" y="385" type="line"/>
			<point x="376" y="318"/>
			<point x="333" y="211"/>
			<point x="333" y="129" type="curve" smooth="yes"/>
			<point x="333" y="51"/>
			<point x="372" y="0"/>
		</contour>
		<contour>
			<point x="532" y="337" type="line"/>
			<point x="532" y="490" type="line"/>
			<point x="77" y="490" type="line"/>
			<point x="45" y="253" type="line"/>
			<point x="63" y="253" type="line"/>
			<point x="89" y="329"/>
			<point x="119" y="337"/>
			<point x="180" y="337" type="curve" smooth="yes"/>
		</contour>
	</outline>
</glyph>
<glyph name="baht" format="2">
	<advance width="713"/>
	<unicode hex="0E3F"/>
	<note>
		uni0E3F
	</note>
	<outline>
		<contour>
			<point x="226" y="0" type="line" name="🧨"/>
			<point x="434" y="0" type="line" smooth="yes"/>
			<point x="609" y="0"/>
			<point x="682" y="84"/>
			<point x="682" y="181" type="curve" smooth="yes"/>
			<point x="682" y="297"/>
			<point x="576" y="348"/>
			<point x="424" y="348" type="curve"/>
			<point x="434" y="342" type="line"/>
			<point x="568" y="344"/>
			<point x="659" y="394"/>
			<point x="659" y="502" type="curve" smooth="yes"/>
			<point x="659" y="596"/>
			<point x="589" y="652"/>
			<point x="430" y="652" type="curve" smooth="yes"/>
			<point x="226" y="652" type="line" name="🧨"/>
			<point x="226" y="632" type="line"/>
			<point x="344" y="632" type="line" smooth="yes"/>
			<point x="430" y="632"/>
			<point x="471" y="597"/>
			<point x="471" y="493" type="curve" smooth="yes"/>
			<point x="471" y="386"/>
			<point x="427" y="356"/>
			<point x="363" y="356" type="curve" smooth="yes"/>
			<point x="214" y="356" type="line"/>
			<point x="214" y="328" type="line"/>
			<point x="373" y="328" type="line" smooth="yes"/>
			<point x="451" y="328"/>
			<point x="495" y="293"/>
			<point x="495" y="179" type="curve" smooth="yes"/>
			<point x="495" y="58"/>
			<point x="447" y="20"/>
			<point x="367" y="20" type="curve" smooth="yes"/>
			<point x="226" y="20" type="line"/>
		</contour>
		<contour>
			<point x="120" y="0" type="line" name="_corner01"/>
			<point x="293" y="0" type="line" name="🧨"/>
			<point x="293" y="652" type="line" name="🧨"/>
			<point x="120" y="652" type="line" name="_corner00"/>
		</contour>
		<contour>
			<point x="359" y="-90" type="line"/>
			<point x="381" y="-90" type="line"/>
			<point x="381" y="730" type="line"/>
			<point x="359" y="730" type="line"/>
		</contour>
	</outline>
</glyph>
<glyph name="emdash" format="2">
	<advance width="775"/>
	<unicode hex="2014"/>
	<outline>
		<contour>
			<point x="40" y="248" type="line"/>
			<point x="735" y="248" type="line"/>
			<point x="735" y="300" type="line"/>
			<point x="40" y="300" type="line"/>
		</contour>
	</outline>
</glyph>
<glyph name="daggerdbl" format="2">
	<advance width="469"/>
	<unicode hex="2021"/>
	<outline>
		<contour>
			<point x="146" y="-73" type="line"/>
			<point x="323" y="-73" type="line"/>
			<point x="323" y="-55" type="line"/>
			<point x="270" y="-55"/>
			<point x="245" y="-39"/>
			<point x="245" y="-8" type="curve" smooth="yes"/>
			<point x="245" y="63" type="line" smooth="yes"/>
			<point x="245" y="93"/>
			<point x="256" y="109"/>
			<point x="288" y="109" type="curve" smooth="yes"/>
			<point x="367" y="109" type="line" smooth="yes"/>
			<point x="402" y="109"/>
			<point x="409" y="79"/>
			<point x="409" y="33" type="curve"/>
			<point x="429" y="33" type="line"/>
			<point x="429" y="205" type="line"/>
			<point x="409" y="205" type="line"/>
			<point x="409" y="159"/>
			<point x="402" y="129"/>
			<point x="367" y="129" type="curve" smooth="yes"/>
			<point x="288" y="129" type="line" smooth="yes"/>
			<point x="256" y="129"/>
			<point x="245" y="145"/>
			<point x="245" y="175" type="curve" smooth="yes"/>
			<point x="245" y="221" type="line" smooth="yes"/>
			<point x="245" y="248"/>
			<point x="261" y="280"/>
			<point x="303" y="280" type="curve" smooth="yes"/>
			<point x="333" y="280" type="line"/>
			<point x="333" y="300" type="line"/>
			<point x="303" y="300" type="line" smooth="yes"/>
			<point x="261" y="300"/>
			<point x="245" y="332"/>
			<point x="245" y="359" type="curve" smooth="yes"/>
			<point x="245" y="405" type="line" smooth="yes"/>
			<point x="245" y="435"/>
			<point x="256" y="451"/>
			<point x="288" y="451" type="curve" smooth="yes"/>
			<point x="367" y="451" type="line" smooth="yes"/>
			<point x="402" y="451"/>
			<point x="409" y="421"/>
			<point x="409" y="375" type="curve"/>
			<point x="429" y="375" type="line"/>
			<point x="429" y="547" type="line"/>
			<point x="409" y="547" type="line"/>
			<point x="409" y="501"/>
			<point x="402" y="471"/>
			<point x="367" y="471" type="curve" smooth="yes"/>
			<point x="288" y="471" type="line" smooth="yes"/>
			<point x="256" y="471"/>
			<point x="245" y="487"/>
			<point x="245" y="517" type="curve" smooth="yes"/>
			<point x="245" y="588" type="line" smooth="yes"/>
			<point x="245" y="619"/>
			<point x="270" y="635"/>
			<point x="323" y="635" type="curve"/>
			<point x="323" y="653" type="line"/>
			<point x="146" y="653" type="line"/>
			<point x="146" y="635" type="line"/>
			<point x="199" y="635"/>
			<point x="224" y="619"/>
			<point x="224" y="588" type="curve" smooth="yes"/>
			<point x="224" y="517" type="line" smooth="yes"/>
			<point x="224" y="487"/>
			<point x="213" y="471"/>
			<point x="181" y="471" type="curve" smooth="yes"/>
			<point x="102" y="471" type="line" smooth="yes"/>
			<point x="71" y="471"/>
			<point x="60" y="501"/>
			<point x="60" y="547" type="curve"/>
			<point x="40" y="547" type="line"/>
			<point x="40" y="375" type="line"/>
			<point x="60" y="375" type="line"/>
			<point x="60" y="421"/>
			<point x="71" y="451"/>
			<point x="102" y="451" type="curve" smooth="yes"/>
			<point x="181" y="451" type="line" smooth="yes"/>
			<point x="213" y="451"/>
			<point x="224" y="435"/>
			<point x="224" y="405" type="curve" smooth="yes"/>
			<point x="224" y="359" type="line" smooth="yes"/>
			<point x="224" y="332"/>
			<point x="208" y="300"/>
			<point x="166" y="300" type="curve" smooth="yes"/>
			<point x="136" y="300" type="line"/>
			<point x="136" y="280" type="line"/>
			<point x="166" y="280" type="line" smooth="yes"/>
			<point x="208" y="280"/>
			<point x="224" y="248"/>
			<point x="224" y="221" type="curve" smooth="yes"/>
			<point x="224" y="175" type="line" smooth="yes"/>
			<point x="224" y="145"/>
			<point x="213" y="129"/>
			<point x="181" y="129" type="curve" smooth="yes"/>
			<point x="102" y="129" type="line" smooth="yes"/>
			<point x="71" y="129"/>
			<point x="60" y="159"/>
			<point x="60" y="205" type="curve"/>
			<point x="40" y="205" type="line"/>
			<point x="40" y="33" type="line"/>
			<point x="60" y="33" type="line"/>
			<point x="60" y="79"/>
			<point x="71" y="109"/>
			<point x="102" y="109" type="curve" smooth="yes"/>
			<point x="181" y="109" type="line" smooth="yes"/>
			<point x="213" y="109"/>
			<point x="224" y="93"/>
			<point x="224" y="63" type="curve" smooth="yes"/>
			<point x="224" y="-8" type="line" smooth="yes"/>
			<point x="224" y="-39"/>
			<point x="199" y="-55"/>
			<point x="146" y="-55" type="curve"/>
		</contour>
	</outline>
</glyph>
<glyph name="perthousand" format="2">
	<advance width="1270"/>
	<unicode hex="2030"/>
	<outline>
		<contour>
			<point x="1036" y="-10" type="curve" smooth="yes"/>
			<point x="1131" y="-10"/>
			<point x="1210" y="60"/>
			<point x="1210" y="172" type="curve" smooth="yes"/>
			<point x="1210" y="286"/>
			<point x="1131" y="354"/>
			<point x="1036" y="354" type="curve" smooth="yes"/>
			<point x="941" y="354"/>
			<point x="861" y="286"/>
			<point x="861" y="172" type="curve" smooth="yes"/>
			<point x="861" y="60"/>
			<point x="941" y="-10"/>
		</contour>
		<contour>
			<point x="1036" y="8" type="curve" smooth="yes"/>
			<point x="1002" y="8"/>
			<point x="981" y="49"/>
			<point x="981" y="172" type="curve" smooth="yes"/>
			<point x="981" y="297"/>
			<point x="1002" y="336"/>
			<point x="1036" y="336" type="curve" smooth="yes"/>
			<point x="1070" y="336"/>
			<point x="1090" y="297"/>
			<point x="1090" y="172" type="curve" smooth="yes"/>
			<point x="1090" y="49"/>
			<point x="1070" y="8"/>
		</contour>
		<contour>
			<point x="171" y="0" type="line"/>
			<point x="200" y="0" type="line"/>
			<point x="710" y="704" type="line"/>
			<point x="681" y="704" type="line"/>
		</contour>
		<contour>
			<point x="235" y="347" type="curve" smooth="yes"/>
			<point x="330" y="347"/>
			<point x="409" y="417"/>
			<point x="409" y="529" type="curve" smooth="yes"/>
			<point x="409" y="643"/>
			<point x="330" y="711"/>
			<point x="235" y="711" type="curve" smooth="yes"/>
			<point x="140" y="711"/>
			<point x="60" y="643"/>
			<point x="60" y="529" type="curve" smooth="yes"/>
			<point x="60" y="417"/>
			<point x="140" y="347"/>
		</contour>
		<contour>
			<point x="235" y="365" type="curve" smooth="yes"/>
			<point x="201" y="365"/>
			<point x="180" y="406"/>
			<point x="180" y="529" type="curve" smooth="yes"/>
			<point x="180" y="654"/>
			<point x="201" y="693"/>
			<point x="235" y="693" type="curve" smooth="yes"/>
			<point x="269" y="693"/>
			<point x="289" y="654"/>
			<point x="289" y="529" type="curve" smooth="yes"/>
			<point x="289" y="406"/>
			<point x="269" y="365"/>
		</contour>
		<contour>
			<point x="646" y="-10" type="curve" smooth="yes"/>
			<point x="741" y="-10"/>
			<point x="820" y="60"/>
			<point x="820" y="172" type="curve" smooth="yes"/>
			<point x="820" y="286"/>
			<point x="741" y="354"/>
			<point x="646" y="354" type="curve" smooth="yes"/>
			<point x="551" y="354"/>
			<point x="471" y="286"/>
			<point x="471" y="172" type="curve" smooth="yes"/>
			<point x="471" y="60"/>
			<point x="551" y="-10"/>
		</contour>
		<contour>
			<point x="646" y="8" type="curve" smooth="yes"/>
			<point x="612" y="8"/>
			<point x="591" y="49"/>
			<point x="591" y="172" type="curve" smooth="yes"/>
			<point x="591" y="297"/>
			<point x="612" y="336"/>
			<point x="646" y="336" type="curve" smooth="yes"/>
			<point x="680" y="336"/>
			<point x="700" y="297"/>
			<point x="700" y="172" type="curve" smooth="yes"/>
			<point x="700" y="49"/>
			<point x="680" y="8"/>
		</contour>
	</outline>
</glyph>
<glyph name="fraction" format="2">
	<advance width="198"/>
	<unicode hex="2044"/>
	<outline>
		<contour>
			<point x="-140" y="-40" type="line"/>
			<point x="-112" y="-40" type="line"/>
			<point x="338" y="722" type="line"/>
			<point x="310" y="722" type="line"/>
		</contour>
	</outline>
</glyph>
<glyph name="zerosuperior" format="2">
	<advance width="389"/>
	<unicode hex="2070"/>
	<outline>
		<contour>
			<point x="195" y="380" type="curve" smooth="yes"/>
			<point x="285" y="380"/>
			<point x="359" y="444"/>
			<point x="359" y="544" type="curve" smooth="yes"/>
			<point x="359" y="645"/>
			<point x="285" y="704"/>
			<point x="195" y="704" type="curve" smooth="yes"/>
			<point x="105" y="704"/>
			<point x="30" y="645"/>
			<point x="30" y="544" type="curve" smooth="yes"/>
			<point x="30" y="444"/>
			<point x="105" y="380"/>
		</contour>
		<contour>
			<point x="195" y="398" type="curve" smooth="yes"/>
			<point x="167" y="398"/>
			<point x="150" y="436"/>
			<point x="150" y="544" type="curve" smooth="yes"/>
			<point x="150" y="654"/>
			<point x="167" y="686"/>
			<point x="195" y="686" type="curve" smooth="yes"/>
			<point x="223" y="686"/>
			<point x="239" y="654"/>
			<point x="239" y="544" type="curve" smooth="yes"/>
			<point x="239" y="436"/>
			<point x="223" y="398"/>
		</contour>
	</outline>
</glyph>
<glyph name="foursuperior" format="2">
	<advance width="364"/>
	<unicode hex="2074"/>
	<outline>
		<contour>
			<point x="129" y="387" type="line"/>
			<point x="319" y="387" type="line"/>
			<point x="319" y="405" type="line"/>
			<point x="299" y="405"/>
			<point x="286" y="415"/>
			<point x="286" y="430" type="curve" smooth="yes"/>
			<point x="286" y="471" type="line"/>
			<point x="334" y="471" type="line"/>
			<point x="334" y="513" type="line"/>
			<point x="286" y="513" type="line"/>
			<point x="286" y="692" type="line"/>
			<point x="214" y="692" type="line"/>
			<point x="28" y="497" type="line"/>
			<point x="38" y="471" type="line"/>
			<point x="169" y="471" type="line"/>
			<point x="169" y="430" type="line" smooth="yes"/>
			<point x="169" y="415"/>
			<point x="153" y="405"/>
			<point x="129" y="405" type="curve"/>
		</contour>
		<contour>
			<point x="65" y="513" type="line"/>
			<point x="169" y="620" type="line"/>
			<point x="169" y="513" type="line"/>
		</contour>
	</outline>
</glyph>
<glyph name="fivesuperior" format="2">
	<advance width="347"/>
	<unicode hex="2075"/>
	<outline>
		<contour>
			<point x="67" y="383" type="line"/>
			<point x="213" y="389"/>
			<point x="299" y="435"/>
			<point x="299" y="505" type="curve" smooth="yes"/>
			<point x="299" y="542"/>
			<point x="275" y="577"/>
			<point x="202" y="577" type="curve" smooth="yes"/>
			<point x="139" y="577"/>
			<point x="103" y="555"/>
			<point x="78" y="519" type="curve"/>
			<point x="87" y="517" type="line"/>
			<point x="97" y="635" type="line"/>
			<point x="86" y="625" type="line"/>
			<point x="280" y="625" type="line"/>
			<point x="287" y="692" type="line"/>
			<point x="83" y="692" type="line"/>
			<point x="69" y="514" type="line"/>
			<point x="85" y="506" type="line"/>
			<point x="101" y="531"/>
			<point x="119" y="537"/>
			<point x="135" y="537" type="curve" smooth="yes"/>
			<point x="158" y="537"/>
			<point x="174" y="525"/>
			<point x="174" y="486" type="curve" smooth="yes"/>
			<point x="174" y="436"/>
			<point x="147" y="409"/>
			<point x="66" y="401" type="curve"/>
		</contour>
	</outline>
</glyph>
<glyph name="sevensuperior" format="2">
	<advance width="299"/>
	<unicode hex="2077"/>
	<outline>
		<contour>
			<point x="55" y="387" type="line"/>
			<point x="181" y="387" type="line"/>
			<point x="290" y="674" type="line"/>
			<point x="280" y="692" type="line"/>
			<point x="47" y="692" type="line"/>
			<point x="41" y="561" type="line"/>
			<point x="59" y="561" type="line"/>
			<point x="67" y="615"/>
			<point x="79" y="625"/>
			<point x="100" y="625" type="curve" smooth="yes"/>
			<point x="263" y="625" type="line"/>
			<point x="283" y="669" type="line"/>
		</contour>
	</outline>
</glyph>
<glyph name="naira" format="2">
	<advance width="750"/>
	<unicode hex="20A6"/>
	<note>
		uni20A6
	</note>
	<outline>
		<contour>
			<point x="602" y="-6" type="line" name="🔥"/>
			<point x="630" y="-6" type="line"/>
			<point x="630" y="562" type="line" smooth="yes"/>
			<point x="630" y="626"/>
			<point x="677" y="632"/>
			<point x="735" y="632" type="curve"/>
			<point x="735" y="652" type="line"/>
			<point x="498" y="652" type="line"/>
			<point x="498" y="632" type="line"/>
			<point x="556" y="632"/>
			<point x="603" y="626"/>
			<point x="603" y="562" type="curve" smooth="yes"/>
			<point x="603" y="189" type="line"/>
			<point x="621" y="240" type="line"/>
			<point x="262" y="652" type="line"/>
			<point x="16" y="652" type="line"/>
			<point x="16" y="632" type="line"/>
			<point x="63" y="623"/>
			<point x="86" y="608"/>
			<point x="127" y="559" type="curve"/>
		</contour>
		<contour>
			<point x="15" y="0" type="line"/>
			<point x="255" y="0" type="line"/>
			<point x="255" y="20" type="line"/>
			<point x="197" y="20"/>
			<point x="150" y="26"/>
			<point x="150" y="90" type="curve" smooth="yes"/>
			<point x="150" y="601" type="line"/>
			<point x="120" y="619" type="line"/>
			<point x="120" y="90" type="line" smooth="yes"/>
			<point x="120" y="26"/>
			<point x="73" y="20"/>
			<point x="15" y="20" type="curve"/>
		</contour>
		<contour>
			<point x="32" y="246" type="line"/>
			<point x="722" y="246" type="line"/>
			<point x="722" y="268" type="line"/>
			<point x="32" y="268" type="line"/>
		</contour>
		<contour>
			<point x="32" y="396" type="line"/>
			<point x="722" y="396" type="line"/>
			<point x="722" y="418" type="line"/>
			<point x="32" y="418" type="line"/>
		</contour>
	</outline>
</glyph>
<glyph name="won" format="2">
	<advance width="1152"/>
	<unicode hex="20A9"/>
	<note>
		uni20A9
	</note>
	<outline>
		<contour>
			<point x="295" y="-13" type="line"/>
			<point x="335" y="-13"/>
			<point x="369" y="-4" name="❌"/>
			<point x="399" y="16" type="curve"/>
			<point x="552" y="468" type="line"/>
			<point x="715" y="-13" type="line"/>
			<point x="755" y="-13"/>
			<point x="789" y="-4" name="❌"/>
			<point x="819" y="16" type="curve"/>
			<point x="1022" y="652" type="line" name="_corner03"/>
			<point x="992" y="652" type="line" name="_corner02"/>
			<point x="839" y="168" type="line"/>
			<point x="833" y="168" type="line"/>
			<point x="673" y="654" type="line"/>
			<point x="637" y="652"/>
			<point x="602" y="644"/>
			<point x="576" y="629" type="curve"/>
			<point x="419" y="168" type="line"/>
			<point x="413" y="168" type="line"/>
			<point x="258" y="652" type="line" name="_corner01"/>
			<point x="73" y="652" type="line" name="_corner00"/>
		</contour>
		<contour>
			<point x="65" y="287" type="line"/>
			<point x="1075" y="287" type="line"/>
			<point x="1075" y="309" type="line"/>
			<point x="65" y="309" type="line"/>
		</contour>
		<contour>
			<point x="65" y="407" type="line"/>
			<point x="1075" y="407" type="line"/>
			<point x="1075" y="429" type="line"/>
			<point x="65" y="429" type="line"/>
		</contour>
	</outline>
</glyph>
<glyph name="peso" format="2">
	<advance width="750"/>
	<unicode hex="20B1"/>
	<note>
		uni20B1
	</note>
	<outline>
		<contour>
			<point x="120" y="0" type="line" name="_corner02"/>
			<point x="293" y="0" type="line" name="_corner00"/>
			<point x="293" y="652" type="line"/>
			<point x="120" y="652" type="line" name="_corner01"/>
		</contour>
		<contour>
			<point x="31" y="390" type="line"/>
			<point x="725" y="390" type="line"/>
			<point x="725" y="412" type="line"/>
			<point x="31" y="412" type="line"/>
		</contour>
		<contour>
			<point x="261" y="253" type="line"/>
			<point x="386" y="253" type="line" smooth="yes"/>
			<point x="585" y="253"/>
			<point x="655" y="354"/>
			<point x="655" y="450" type="curve" smooth="yes"/>
			<point x="655" y="536"/>
			<point x="599" y="652"/>
			<point x="401" y="652" type="curve" smooth="yes"/>
			<point x="263" y="652" type="line" name="🔥"/>
			<point x="263" y="632" type="line" name="🧨"/>
			<point x="338" y="632" type="line" smooth="yes"/>
			<point x="423" y="632"/>
			<point x="479" y="589"/>
			<point x="479" y="448" type="curve" smooth="yes"/>
			<point x="479" y="321"/>
			<point x="433" y="273"/>
			<point x="338" y="273" type="curve" smooth="yes"/>
			<point x="261" y="273" type="line"/>
		</contour>
		<contour>
			<point x="31" y="490" type="line"/>
			<point x="725" y="490" type="line"/>
			<point x="725" y="512" type="line"/>
			<point x="31" y="512" type="line"/>
		</contour>
	</outline>
</glyph>
<glyph name="numero" format="2">
	<advance width="1130"/>
	<unicode hex="2116"/>
	<note>
		uni2116
	</note>
	<outline>
		<contour>
			<point x="836" y="348" type="line"/>
			<point x="1083" y="348" type="line"/>
			<point x="1083" y="368" type="line"/>
			<point x="836" y="368" type="line"/>
		</contour>
		<component base="N"/>
		<component base="ordmasculine" xOffset="788" yOffset="92"/>
	</outline>
</glyph>
<glyph name="trademark" format="2">
	<advance width="809"/>
	<unicode hex="2122"/>
	<outline>
		<contour>
			<point x="505" y="390" type="line"/>
			<point x="519" y="392"/>
			<point x="534" y="397"/>
			<point x="545" y="403" type="curve"/>
			<point x="627" y="615" type="line"/>
			<point x="617" y="615" type="line"/>
			<point x="628" y="442" type="line" smooth="yes"/>
			<point x="629" y="421"/>
			<point x="619" y="414"/>
			<point x="591" y="411" type="curve"/>
			<point x="591" y="393" type="line"/>
			<point x="739" y="393" type="line"/>
			<point x="739" y="411" type="line"/>
			<point x="713" y="413"/>
			<point x="704" y="421"/>
			<point x="702" y="446" type="curve" smooth="yes"/>
			<point x="691" y="621" type="line" smooth="yes"/>
			<point x="690" y="636"/>
			<point x="696" y="647"/>
			<point x="728" y="647" type="curve"/>
			<point x="728" y="664" type="line"/>
			<point x="621" y="664" type="line"/>
			<point x="539" y="453" type="line"/>
			<point x="556" y="453" type="line"/>
			<point x="467" y="664" type="line"/>
			<point x="361" y="664" type="line"/>
			<point x="361" y="647" type="line"/>
			<point x="388" y="645"/>
			<point x="395" y="632"/>
			<point x="394" y="616" type="curve" smooth="yes"/>
			<point x="384" y="446" type="line" smooth="yes"/>
			<point x="383" y="421"/>
			<point x="374" y="412"/>
			<point x="343" y="411" type="curve"/>
			<point x="343" y="393" type="line"/>
			<point x="452" y="393" type="line"/>
			<point x="452" y="411" type="line"/>
			<point x="417" y="411"/>
			<point x="410" y="418"/>
			<point x="411" y="442" type="curve" smooth="yes"/>
			<point x="419" y="616" type="line"/>
			<point x="409" y="616" type="line"/>
		</contour>
		<contour>
			<point x="112" y="393" type="line"/>
			<point x="271" y="393" type="line"/>
			<point x="271" y="411" type="line"/>
			<point x="244" y="411"/>
			<point x="231" y="422"/>
			<point x="231" y="436" type="curve" smooth="yes"/>
			<point x="231" y="652" type="line" name="🧨"/>
			<point x="152" y="652" type="line" name="🧨"/>
			<point x="152" y="436" type="line" smooth="yes"/>
			<point x="152" y="422"/>
			<point x="140" y="411"/>
			<point x="112" y="411" type="curve"/>
		</contour>
		<contour>
			<point x="60" y="572" type="line"/>
			<point x="76" y="572" type="line"/>
			<point x="95" y="628"/>
			<point x="101" y="642"/>
			<point x="123" y="642" type="curve" smooth="yes"/>
			<point x="261" y="642" type="line" smooth="yes"/>
			<point x="283" y="642"/>
			<point x="289" y="628"/>
			<point x="307" y="572" type="curve"/>
			<point x="324" y="572" type="line"/>
			<point x="315" y="672" type="line"/>
			<point x="306" y="672" type="line"/>
			<point x="298" y="665"/>
			<point x="295" y="664"/>
			<point x="288" y="664" type="curve" smooth="yes"/>
			<point x="96" y="664" type="line" smooth="yes"/>
			<point x="89" y="664"/>
			<point x="85" y="666"/>
			<point x="78" y="672" type="curve"/>
			<point x="68" y="672" type="line"/>
		</contour>
	</outline>
</glyph>
<glyph name="estimated" format="2">
	<advance width="724"/>
	<unicode hex="212E"/>
	<outline>
		<contour>
			<point x="382" y="-12" type="curve" smooth="yes"/>
			<point x="477" y="-12"/>
			<point x="570" y="22"/>
			<point x="628" y="99" type="curve"/>
			<point x="612" y="113" type="line"/>
			<point x="556" y="44"/>
			<point x="478" y="11"/>
			<point x="385" y="11" type="curve" smooth="yes"/>
			<point x="273" y="11"/>
			<point x="191" y="56"/>
			<point x="167" y="89" type="curve"/>
			<point x="173" y="71" type="line"/>
			<point x="173" y="311" type="line"/>
			<point x="684" y="311" type="line"/>
			<point x="684" y="319" type="line" smooth="yes"/>
			<point x="684" y="533"/>
			<point x="523" y="640"/>
			<point x="366" y="640" type="curve" smooth="yes"/>
			<point x="191" y="640"/>
			<point x="40" y="507"/>
			<point x="40" y="314" type="curve" smooth="yes"/>
			<point x="40" y="117"/>
			<point x="196" y="-12"/>
		</contour>
		<contour>
			<point x="173" y="333" type="line"/>
			<point x="173" y="567" type="line"/>
			<point x="147" y="521" type="line"/>
			<point x="186" y="574"/>
			<point x="254" y="618"/>
			<point x="368" y="618" type="curve" smooth="yes"/>
			<point x="478" y="618"/>
			<point x="558" y="567"/>
			<point x="566" y="526" type="curve"/>
			<point x="553" y="570" type="line"/>
			<point x="553" y="333" type="line"/>
		</contour>
	</outline>
</glyph>
<glyph name="upArrow" format="2">
	<advance width="531"/>
	<unicode hex="2191"/>
	<outline>
		<contour>
			<point x="51" y="387" type="line"/>
			<point x="59" y="376" type="line"/>
			<point x="270" y="529" type="line"/>
			<point x="272" y="529" type="line"/>
			<point x="473" y="376" type="line"/>
			<point x="480" y="387" type="line"/>
			<point x="277" y="671" type="line"/>
			<point x="265" y="671" type="line"/>
		</contour>
		<contour>
			<point x="266" y="558" type="line"/>
			<point x="220" y="103" type="line" smooth="yes"/>
			<point x="216" y="67"/>
			<point x="240" y="44"/>
			<point x="270" y="44" type="curve" smooth="yes"/>
			<point x="298" y="44"/>
			<point x="323" y="66"/>
			<point x="319" y="103" type="curve" smooth="yes"/>
			<point x="276" y="558" type="line"/>
		</contour>
	</outline>
</glyph>
<glyph name="partialdiff" format="2">
	<advance width="670"/>
	<unicode hex="2202"/>
	<outline>
		<contour>
			<point x="155" y="537" type="line"/>
			<point x="180" y="616"/>
			<point x="234" y="658"/>
			<point x="294" y="658" type="curve" smooth="yes"/>
			<point x="380" y="658"/>
			<point x="438" y="572"/>
			<point x="438" y="434" type="curve" smooth="yes"/>
			<point x="438" y="387" type="line" smooth="yes"/>
			<point x="438" y="148"/>
			<point x="385" y="7"/>
			<point x="300" y="7" type="curve" smooth="yes"/>
			<point x="239" y="7"/>
			<point x="223" y="81"/>
			<point x="223" y="167" type="curve" smooth="yes"/>
			<point x="223" y="315"/>
			<point x="270" y="437"/>
			<point x="357" y="437" type="curve" smooth="yes"/>
			<point x="386" y="437"/>
			<point x="418" y="423"/>
			<point x="454" y="381" type="curve"/>
			<point x="454" y="402" type="line"/>
			<point x="418" y="446"/>
			<point x="372" y="461"/>
			<point x="318" y="461" type="curve" smooth="yes"/>
			<point x="152" y="461"/>
			<point x="50" y="316"/>
			<point x="50" y="183" type="curve" smooth="yes"/>
			<point x="50" y="63"/>
			<point x="135" y="-12"/>
			<point x="264" y="-12" type="curve" smooth="yes"/>
			<point x="460" y="-12"/>
			<point x="611" y="161"/>
			<point x="611" y="391" type="curve" smooth="yes"/>
			<point x="611" y="602"/>
			<point x="483" y="704"/>
			<point x="344" y="704" type="curve" smooth="yes"/>
			<point x="240" y="704"/>
			<point x="170" y="646"/>
			<point x="136" y="542" type="curve"/>
		</contour>
	</outline>
</glyph>
<glyph name="summation" format="2">
	<advance width="679"/>
	<unicode hex="2211"/>
	<outline>
		<contour>
			<point x="48" y="-120" type="line"/>
			<point x="587" y="-120" type="line"/>
			<point x="617" y="95" type="line"/>
			<point x="597" y="95" type="line"/>
			<point x="556" y="-28"/>
			<point x="493" y="-55"/>
			<point x="421" y="-55" type="curve" smooth="yes"/>
			<point x="96" y="-55" type="line"/>
			<point x="91" y="-79" type="line"/>
			<point x="454" y="314" type="line"/>
			<point x="454" y="336" type="line"/>
			<point x="223" y="683" type="line"/>
			<point x="198" y="668" type="line"/>
			<point x="401" y="668" type="line" smooth="yes"/>
			<point x="524" y="668"/>
			<point x="556" y="569"/>
			<point x="577" y="488" type="curve" name="❌"/>
			<point x="597" y="488" type="line" name="❌"/>
			<point x="567" y="693" type="line"/>
			<point x="60" y="693" type="line"/>
			<point x="44" y="669" type="line"/>
			<point x="350" y="220" type="line"/>
			<point x="392" y="279" type="line"/>
			<point x="40" y="-101" type="line"/>
		</contour>
	</outline>
</glyph>
<glyph name="minus" format="2">
	<advance width="600"/>
	<unicode hex="2212"/>
	<outline>
		<contour>
			<point x="99" y="263" type="line"/>
			<point x="500" y="263" type="line"/>
			<point x="500" y="303" type="line"/>
			<point x="99" y="303" type="line"/>
		</contour>
	</outline>
</glyph>
<glyph name="radical" format="2">
	<advance width="657"/>
	<unicode hex="221A"/>
	<outline>
		<contour>
			<point x="283" y="-11" type="line"/>
			<point x="342" y="11" type="line"/>
			<point x="652" y="758" type="line"/>
			<point x="632" y="758" type="line"/>
			<point x="336" y="51" type="line"/>
			<point x="385" y="138" type="line"/>
			<point x="251" y="434" type="line"/>
			<point x="44" y="357" type="line"/>
			<point x="44" y="339" type="line"/>
			<point x="91" y="350"/>
			<point x="113" y="342"/>
			<point x="145" y="276" type="curve" smooth="yes"/>
		</contour>
	</outline>
</glyph>
<glyph name="infinity" format="2">
	<advance width="766"/>
	<unicode hex="221E"/>
	<outline>
		<contour>
			<point x="573" y="171" type="curve" smooth="yes"/>
			<point x="664" y="171"/>
			<point x="726" y="256"/>
			<point x="726" y="379" type="curve" smooth="yes"/>
			<point x="726" y="507"/>
			<point x="658" y="584"/>
			<point x="550" y="584" type="curve" smooth="yes"/>
			<point x="343" y="584"/>
			<point x="358" y="303"/>
			<point x="165" y="303" type="curve" smooth="yes"/>
			<point x="99" y="303"/>
			<point x="62" y="336"/>
			<point x="62" y="377" type="curve" smooth="yes"/>
			<point x="62" y="417"/>
			<point x="91" y="451"/>
			<point x="198" y="451" type="curve" smooth="yes"/>
			<point x="276" y="451"/>
			<point x="326" y="433"/>
			<point x="360" y="386" type="curve"/>
			<point x="370" y="389" type="line"/>
			<point x="309" y="548"/>
			<point x="253" y="584"/>
			<point x="198" y="584" type="curve" smooth="yes"/>
			<point x="97" y="584"/>
			<point x="40" y="478"/>
			<point x="40" y="376" type="curve" smooth="yes"/>
			<point x="40" y="262"/>
			<point x="111" y="175"/>
			<point x="224" y="175" type="curve" smooth="yes"/>
			<point x="427" y="175"/>
			<point x="410" y="455"/>
			<point x="601" y="455" type="curve" smooth="yes"/>
			<point x="652" y="455"/>
			<point x="704" y="435"/>
			<point x="704" y="378" type="curve" smooth="yes"/>
			<point x="704" y="337"/>
			<point x="678" y="300"/>
			<point x="569" y="300" type="curve" smooth="yes"/>
			<point x="506" y="300"/>
			<point x="477" y="311"/>
			<point x="414" y="344" type="curve"/>
			<point x="406" y="340" type="line"/>
			<point x="446" y="237"/>
			<point x="494" y="171"/>
		</contour>
	</outline>
</glyph>
<glyph name="integral" format="2">
	<advance width="570"/>
	<unicode hex="222B"/>
	<outline>
		<contour>
			<point x="71" y="-218" type="curve" smooth="yes"/>
			<point x="168" y="-218"/>
			<point x="248" y="-165"/>
			<point x="275" y="-41" type="curve" smooth="yes"/>
			<point x="409" y="578" type="line" smooth="yes"/>
			<point x="425" y="652"/>
			<point x="437" y="683"/>
			<point x="464" y="683" type="curve" smooth="yes"/>
			<point x="496" y="683"/>
			<point x="513" y="638"/>
			<point x="521" y="538" type="curve"/>
			<point x="540" y="538" type="line"/>
			<point x="540" y="679" type="line"/>
			<point x="508" y="697" name="❌"/>
			<point x="472" y="704"/>
			<point x="435" y="704" type="curve" smooth="yes"/>
			<point x="334" y="704"/>
			<point x="255" y="651"/>
			<point x="228" y="527" type="curve" smooth="yes"/>
			<point x="94" y="-92" type="line" smooth="yes"/>
			<point x="78" y="-166"/>
			<point x="70" y="-197"/>
			<point x="42" y="-197" type="curve" smooth="yes"/>
			<point x="9" y="-197"/>
			<point x="-10" y="-152"/>
			<point x="-18" y="-52" type="curve"/>
			<point x="-37" y="-52" type="line"/>
			<point x="-37" y="-193" type="line"/>
			<point x="-5" y="-211" name="❌"/>
			<point x="35" y="-218"/>
		</contour>
	</outline>
</glyph>
<glyph name="notequal" format="2">
	<advance width="600"/>
	<unicode hex="2260"/>
	<outline>
		<contour>
			<point x="182" y="84" type="line"/>
			<point x="216" y="68" type="line"/>
			<point x="424" y="468" type="line"/>
			<point x="389" y="485" type="line"/>
		</contour>
		<contour>
			<point x="99" y="333" type="line"/>
			<point x="500" y="333" type="line"/>
			<point x="500" y="373" type="line"/>
			<point x="99" y="373" type="line"/>
		</contour>
		<contour>
			<point x="99" y="183" type="line"/>
			<point x="500" y="183" type="line"/>
			<point x="500" y="223" type="line"/>
			<point x="99" y="223" type="line"/>
		</contour>
	</outline>
</glyph>
<glyph name="whiteSquare" format="2">
	<advance width="892"/>
	<unicode hex="25A1"/>
	<note>
		uni25A1
	</note>
	<outline>
		<contour>
			<point x="100" y="0" type="line"/>
			<point x="792" y="0" type="line"/>
			<point x="792" y="692" type="line"/>
			<point x="100" y="692" type="line"/>
		</contour>
		<contour>
			<point x="123" y="22" type="line"/>
			<point x="123" y="670" type="line"/>
			<point x="769" y="670" type="line"/>
			<point x="769" y="22" type="line"/>
		</contour>
	</outline>
</glyph>
<glyph name="whiteCircle" format="2">
	<advance width="796"/>
	<unicode hex="25CB"/>
	<note>
		uni25CB
	</note>
	<outline>
		<contour>
			<point x="396" y="-12" type="curve" smooth="yes"/>
			<point x="602" y="-12"/>
			<point x="751" y="147"/>
			<point x="751" y="348" type="curve" smooth="yes"/>
			<point x="751" y="547"/>
			<point x="605" y="704"/>
			<point x="398" y="704" type="curve" smooth="yes"/>
			<point x="191" y="704"/>
			<point x="45" y="546"/>
			<point x="45" y="346" type="curve" smooth="yes"/>
			<point x="45" y="146"/>
			<point x="191" y="-12"/>
		</contour>
		<contour>
			<point x="398" y="10" type="curve" smooth="yes"/>
			<point x="201" y="10"/>
			<point x="68" y="158"/>
			<point x="68" y="346" type="curve" smooth="yes"/>
			<point x="68" y="536"/>
			<point x="201" y="682"/>
			<point x="398" y="682" type="curve" smooth="yes"/>
			<point x="595" y="682"/>
			<point x="728" y="536"/>
			<point x="728" y="346" type="curve" smooth="yes"/>
			<point x="728" y="158"/>
			<point x="595" y="10"/>
		</contour>
	</outline>
</glyph>
<glyph name="_corner.digit" format="2">
	<advance width="600"/>
	<outline>
		<contour>
			<point x="0" y="0" type="move"/>
			<point x="110" y="0" type="line"/>
			<point x="110" y="18" type="line"/>
			<point x="32" y="18"/>
			<point x="0" y="47"/>
			<point x="0" y="101" type="curve"/>
		</contour>
	</outline>
</glyph>
<glyph name="_corner.serifleft" format="2">
	<advance width="600"/>
	<outline>
		<contour>
			<point x="0" y="80" type="move"/>
			<point x="0" y="25"/>
			<point x="-55" y="18"/>
			<point x="-70" y="18" type="curve"/>
			<point x="-70" y="0" type="line"/>
			<point x="10" y="0" type="line"/>
		</contour>
	</outline>
</glyph>
<glyph name=".notdef" format="2">
	<advance width="986"/>
	<outline>
		<contour>
			<point x="493" y="-164" type="curve" smooth="yes"/>
			<point x="756" y="-164"/>
			<point x="946" y="27"/>
			<point x="946" y="289" type="curve" smooth="yes"/>
			<point x="946" y="552"/>
			<point x="756" y="742"/>
			<point x="493" y="742" type="curve" smooth="yes"/>
			<point x="230" y="742"/>
			<point x="40" y="552"/>
			<point x="40" y="289" type="curve" smooth="yes"/>
			<point x="40" y="27"/>
			<point x="230" y="-164"/>
		</contour>
		<contour>
			<point x="467" y="-13" type="curve" smooth="yes"/>
			<point x="431" y="-13"/>
			<point x="399" y="18"/>
			<point x="399" y="55" type="curve" smooth="yes"/>
			<point x="399" y="92"/>
			<point x="431" y="122"/>
			<point x="467" y="122" type="curve" smooth="yes"/>
			<point x="502" y="122"/>
			<point x="533" y="92"/>
			<point x="533" y="55" type="curve" smooth="yes"/>
			<point x="533" y="18"/>
			<point x="502" y="-13"/>
		</contour>
		<contour>
			<point x="444" y="154" type="line"/>
			<point x="421" y="179"/>
			<point x="417" y="211"/>
			<point x="417" y="231" type="curve" smooth="yes"/>
			<point x="417" y="342"/>
			<point x="541" y="322"/>
			<point x="541" y="453" type="curve" smooth="yes"/>
			<point x="541" y="507"/>
			<point x="520" y="535"/>
			<point x="473" y="535" type="curve" smooth="yes"/>
			<point x="402" y="535"/>
			<point x="373" y="472"/>
			<point x="380" y="416" type="curve"/>
			<point x="333" y="416" type="line"/>
			<point x="327" y="529" type="line"/>
			<point x="363" y="564"/>
			<point x="409" y="591"/>
			<point x="493" y="591" type="curve" smooth="yes"/>
			<point x="601" y="591"/>
			<point x="675" y="542"/>
			<point x="675" y="451" type="curve" smooth="yes"/>
			<point x="675" y="302"/>
			<point x="474" y="301"/>
			<point x="474" y="199" type="curve" smooth="yes"/>
			<point x="474" y="185"/>
			<point x="478" y="173"/>
			<point x="484" y="163" type="curve"/>
		</contour>
	</outline>
</glyph>
<glyph name="acutecomb.viet" format="2">
	<advance width="403"/>
	<anchor x="139" y="490" name="_top"/>
	<anchor x="139" y="704" name="top"/>
	<outline>
		<contour>
			<point x="116" y="533" type="line"/>
			<point x="291" y="666" type="line"/>
			<point x="291" y="684" type="line"/>
			<point x="150" y="684" type="line"/>
			<point x="99" y="546" type="line"/>
		</contour>
	</outline>
</glyph>
<glyph name="bracketleft.case" format="2">
	<advance width="360"/>
	<outline>
		<contour>
			<point x="70" y="-140" type="line"/>
			<point x="350" y="-140" type="line"/>
			<point x="350" y="-118" type="line"/>
			<point x="305" y="-118" type="line" smooth="yes"/>
			<point x="257" y="-118"/>
			<point x="240" y="-87"/>
			<point x="240" y="-55" type="curve" smooth="yes"/>
			<point x="240" y="714" type="line" smooth="yes"/>
			<point x="240" y="757"/>
			<point x="269" y="778"/>
			<point x="305" y="778" type="curve" smooth="yes"/>
			<point x="350" y="778" type="line"/>
			<point x="350" y="800" type="line"/>
			<point x="70" y="800" type="line"/>
		</contour>
	</outline>
</glyph>
<glyph name="brevecomb.case" format="2">
	<advance width="320"/>
	<anchor x="160" y="692" name="_top"/>
	<anchor x="160" y="865" name="top"/>
	<anchor x="160" y="831" name="top_viet"/>
	<outline>
		<contour>
			<point x="160" y="733" type="curve" smooth="yes" name="❌"/>
			<point x="228" y="733" name="❌"/>
			<point x="275" y="772"/>
			<point x="275" y="890" type="curve"/>
			<point x="257" y="890" type="line"/>
			<point x="257" y="837"/>
			<point x="222" y="821"/>
			<point x="160" y="821" type="curve" smooth="yes"/>
			<point x="98" y="821"/>
			<point x="63" y="837"/>
			<point x="63" y="890" type="curve"/>
			<point x="45" y="890" type="line"/>
			<point x="45" y="775"/>
			<point x="92" y="733" name="❌"/>
		</contour>
	</outline>
</glyph>
<glyph name="four.lf" format="2">
	<advance width="675"/>
	<outline>
		<contour>
			<point x="347" y="0" type="line" name="_corner01"/>
			<point x="514" y="0" type="line" name="_corner00"/>
			<point x="514" y="686" type="line"/>
			<point x="403" y="686" type="line"/>
			<point x="28" y="225" type="line"/>
			<point x="48" y="168" type="line"/>
			<point x="630" y="168" type="line"/>
			<point x="630" y="248" type="line"/>
			<point x="57" y="248" type="line"/>
			<point x="57" y="230" type="line"/>
			<point x="345" y="583" type="line"/>
			<point x="347" y="583" type="line"/>
		</contour>
	</outline>
</glyph>
<glyph name="g.alt" format="2">
	<advance width="523"/>
	<anchor x="268" y="-208" name="bottom"/>
	<anchor x="254" y="490" name="top"/>
	<anchor x="235" y="490" name="top_1"/>
	<outline>
		<contour>
			<point x="243" y="-220" type="curve" smooth="yes"/>
			<point x="397" y="-220"/>
			<point x="498" y="-143"/>
			<point x="498" y="-43" type="curve" smooth="yes"/>
			<point x="498" y="36"/>
			<point x="436" y="91"/>
			<point x="286" y="120" type="curve" smooth="yes"/>
			<point x="131" y="150"/>
			<point x="114" y="162"/>
			<point x="114" y="179" type="curve" smooth="yes"/>
			<point x="114" y="192"/>
			<point x="121" y="203"/>
			<point x="164" y="222" type="curve"/>
			<point x="164" y="238" type="line"/>
			<point x="119" y="225"/>
			<point x="40" y="184"/>
			<point x="40" y="108" type="curve" smooth="yes"/>
			<point x="40" y="25"/>
			<point x="131" y="-1" name="❌"/>
			<point x="234" y="-28" type="curve" smooth="yes"/>
			<point x="341" y="-56"/>
			<point x="375" y="-65"/>
			<point x="375" y="-116" type="curve" smooth="yes"/>
			<point x="375" y="-164"/>
			<point x="344" y="-200"/>
			<point x="261" y="-200" type="curve" smooth="yes"/>
			<point x="172" y="-200"/>
			<point x="103" y="-159"/>
			<point x="103" y="-83" type="curve" smooth="yes"/>
			<point x="103" y="-21"/>
			<point x="147" y="1"/>
			<point x="162" y="9" type="curve"/>
			<point x="160" y="14" type="line"/>
			<point x="91" y="3"/>
			<point x="20" y="-32"/>
			<point x="20" y="-94" type="curve" smooth="yes"/>
			<point x="20" y="-165"/>
			<point x="113" y="-220"/>
		</contour>
		<contour>
			<point x="260" y="187" type="curve" smooth="yes"/>
			<point x="392" y="187"/>
			<point x="467" y="254"/>
			<point x="467" y="349" type="curve" smooth="yes"/>
			<point x="467" y="451"/>
			<point x="377" y="510"/>
			<point x="255" y="510" type="curve" smooth="yes"/>
			<point x="132" y="510"/>
			<point x="48" y="451"/>
			<point x="48" y="352" type="curve" smooth="yes"/>
			<point x="48" y="255"/>
			<point x="128" y="187"/>
		</contour>
		<contour>
			<point x="261" y="205" type="curve" smooth="yes"/>
			<point x="224" y="205"/>
			<point x="198" y="244"/>
			<point x="198" y="350" type="curve" smooth="yes"/>
			<point x="198" y="475"/>
			<point x="234" y="492"/>
			<point x="259" y="492" type="curve" smooth="yes"/>
			<point x="291" y="492"/>
			<point x="315" y="466"/>
			<point x="315" y="350" type="curve" smooth="yes"/>
			<point x="315" y="221"/>
			<point x="285" y="205"/>
		</contour>
		<contour>
			<point x="369" y="456" type="line"/>
			<point x="429" y="468"/>
			<point x="499" y="510"/>
			<point x="499" y="573" type="curve" smooth="yes"/>
			<point x="499" y="598"/>
			<point x="491" y="617"/>
			<point x="480" y="628" type="curve"/>
			<point x="380" y="628" type="line"/>
			<point x="380" y="612" type="line"/>
			<point x="412" y="602"/>
			<point x="422" y="572"/>
			<point x="422" y="540" type="curve" smooth="yes"/>
			<point x="422" y="499"/>
			<point x="401" y="480" name="❌"/>
			<point x="364" y="464" type="curve"/>
		</contour>
	</outline>
</glyph>
<glyph name="gravecomb.viet" format="2">
	<advance width="403"/>
	<anchor x="237" y="490" name="_top"/>
	<anchor x="202" y="704" name="top"/>
	<outline>
		<contour>
			<point x="287" y="533" type="line"/>
			<point x="304" y="546" type="line"/>
			<point x="253" y="684" type="line"/>
			<point x="112" y="684" type="line"/>
			<point x="112" y="666" type="line"/>
		</contour>
	</outline>
</glyph>
<glyph name="horncomb.case" format="2">
	<advance width="272"/>
	<anchor x="55" y="490" name="_topright"/>
	<anchor x="283" y="575" name="topright"/>
	<outline>
		<contour>
			<point x="45" y="473" type="line"/>
			<point x="137" y="473"/>
			<point x="227" y="508"/>
			<point x="227" y="582" type="curve" smooth="yes"/>
			<point x="227" y="599"/>
			<point x="222" y="616"/>
			<point x="214" y="628" type="curve"/>
			<point x="67" y="628" type="line"/>
			<point x="67" y="609" type="line"/>
			<point x="95" y="603"/>
			<point x="112" y="580"/>
			<point x="112" y="550" type="curve" smooth="yes"/>
			<point x="112" y="507"/>
			<point x="78" y="490"/>
			<point x="45" y="490" type="curve"/>
		</contour>
	</outline>
</glyph>
<glyph name="hungarumlautcomb.case" format="2">
	<advance width="479"/>
	<anchor x="190" y="692" name="_top"/>
	<anchor x="190" y="884" name="top"/>
	<outline>
		<contour>
			<point x="237" y="727" type="line" name="❌"/>
			<point x="434" y="866" type="line"/>
			<point x="434" y="884" type="line"/>
			<point x="313" y="884" type="line"/>
			<point x="225" y="739" type="line"/>
		</contour>
		<contour>
			<point x="57" y="727" type="line" name="❌"/>
			<point x="254" y="866" type="line"/>
			<point x="254" y="884" type="line"/>
			<point x="133" y="884" type="line"/>
			<point x="45" y="739" type="line"/>
		</contour>
	</outline>
</glyph>
<glyph name="macroncomb.case" format="2">
	<advance width="382"/>
	<anchor x="191" y="692" name="_top"/>
	<anchor x="191" y="793" name="top"/>
	<outline>
		<contour>
			<point x="45" y="793" type="line"/>
			<point x="45" y="759" type="line"/>
			<point x="337" y="759" type="line"/>
			<point x="337" y="793" type="line"/>
		</contour>
	</outline>
</glyph>
<glyph name="ogonekcomb.case" format="2">
	<advance width="340"/>
	<anchor x="241" y="10" name="_ogonek"/>
	<outline>
		<contour>
			<point x="153" y="-223" type="curve" smooth="yes"/>
			<point x="206" y="-223"/>
			<point x="261" y="-201"/>
			<point x="295" y="-160" type="curve"/>
			<point x="289" y="-151" type="line"/>
			<point x="265" y="-173"/>
			<point x="239" y="-177"/>
			<point x="223" y="-177" type="curve" smooth="yes"/>
			<point x="185" y="-177"/>
			<point x="157" y="-159"/>
			<point x="157" y="-112" type="curve" smooth="yes"/>
			<point x="157" y="-86"/>
			<point x="165" y="-31"/>
			<point x="239" y="15" type="curve"/>
			<point x="225" y="15" type="line"/>
			<point x="84" y="-31"/>
			<point x="45" y="-91"/>
			<point x="45" y="-142" type="curve" smooth="yes"/>
			<point x="45" y="-193"/>
			<point x="87" y="-223"/>
		</contour>
	</outline>
</glyph>
<glyph name="periodcentered.loclCAT.case" format="2">
	<advance width="296"/>
	<anchor x="148" y="334" name="_dot"/>
	<outline>
		<contour>
			<point x="149" y="245" type="curve" smooth="yes"/>
			<point x="195" y="245"/>
			<point x="236" y="284"/>
			<point x="236" y="334" type="curve" smooth="yes"/>
			<point x="236" y="383"/>
			<point x="195" y="421"/>
			<point x="149" y="421" type="curve" smooth="yes"/>
			<point x="102" y="421"/>
			<point x="60" y="383"/>
			<point x="60" y="334" type="curve" smooth="yes"/>
			<point x="60" y="284"/>
			<point x="102" y="245"/>
		</contour>
	</outline>
</glyph>
<glyph name="seven.lf" format="2">
	<advance width="569"/>
	<outline>
		<contour>
			<point x="71" y="0" type="line"/>
			<point x="241" y="0" type="line"/>
			<point x="540" y="668" type="line"/>
			<point x="528" y="686" type="line"/>
			<point x="72" y="686" type="line"/>
			<point x="61" y="445" type="line"/>
			<point x="79" y="445" type="line"/>
			<point x="106" y="568"/>
			<point x="133" y="576"/>
			<point x="219" y="576" type="curve" smooth="yes"/>
			<point x="491" y="576" type="line"/>
			<point x="526" y="652" type="line"/>
		</contour>
	</outline>
</glyph>
<glyph name="seven.lf.ss01" format="2">
	<advance width="540"/>
	<outline>
		<contour>
			<point x="145" y="0" type="curve"/>
			<point x="307" y="0" type="line"/>
			<point x="307" y="298"/>
			<point x="414" y="499"/>
			<point x="517" y="609" type="curve"/>
			<point x="495" y="686" type="line"/>
			<point x="88" y="686" type="line"/>
			<point x="55" y="481" type="line"/>
			<point x="110" y="481" type="line"/>
			<point x="129" y="560"/>
			<point x="156" y="576"/>
			<point x="199" y="576" type="curve" smooth="yes"/>
			<point x="444" y="576" type="line"/>
			<point x="455" y="616" type="line"/>
			<point x="273" y="450"/>
			<point x="173" y="263"/>
		</contour>
	</outline>
</glyph>
<glyph name="slashlongcomb.case" format="2">
	<advance width="641"/>
	<anchor x="320" y="339" name="_center"/>
	<outline>
		<contour>
			<point x="45" y="5" type="line"/>
			<point x="62" y="-9" type="line"/>
			<point x="596" y="672" type="line"/>
			<point x="577" y="687" type="line"/>
		</contour>
	</outline>
</glyph>
<glyph name="slashshortcomb.case" format="2">
	<advance width="470"/>
	<anchor x="219" y="354" name="_center"/>
	<outline>
		<contour>
			<point x="56" y="236" type="line"/>
			<point x="425" y="451" type="line"/>
			<point x="413" y="470" type="line"/>
			<point x="45" y="255" type="line"/>
		</contour>
	</outline>
</glyph>
<glyph name="tildecomb.case" format="2">
	<advance width="406"/>
	<anchor x="208" y="692" name="_top"/>
	<anchor x="208" y="902" name="top"/>
	<outline>
		<contour>
			<point x="61" y="750" type="line"/>
			<point x="77" y="777"/>
			<point x="96" y="798"/>
			<point x="125" y="798" type="curve" smooth="yes"/>
			<point x="170" y="798"/>
			<point x="202" y="748"/>
			<point x="252" y="748" type="curve" smooth="yes"/>
			<point x="309" y="748"/>
			<point x="341" y="814"/>
			<point x="361" y="883" type="curve"/>
			<point x="345" y="890" type="line"/>
			<point x="330" y="858"/>
			<point x="314" y="844"/>
			<point x="291" y="844" type="curve" smooth="yes"/>
			<point x="248" y="844"/>
			<point x="223" y="894"/>
			<point x="168" y="894" type="curve" smooth="yes"/>
			<point x="116" y="894"/>
			<point x="76" y="849"/>
			<point x="45" y="758" type="curve"/>
		</contour>
	</outline>
</glyph>
<glyph name="zero.lf" format="2">
	<advance width="720"/>
	<outline>
		<contour>
			<point x="360" y="-12" type="curve" smooth="yes"/>
			<point x="538" y="-12"/>
			<point x="670" y="118"/>
			<point x="670" y="341" type="curve" smooth="yes"/>
			<point x="670" y="564"/>
			<point x="538" y="698" name="❌"/>
			<point x="360" y="698" type="curve" smooth="yes" name="❌"/>
			<point x="182" y="698" name="❌"/>
			<point x="50" y="564"/>
			<point x="50" y="341" type="curve" smooth="yes"/>
			<point x="50" y="118"/>
			<point x="182" y="-12"/>
		</contour>
		<contour>
			<point x="360" y="6" type="curve" smooth="yes"/>
			<point x="270" y="6"/>
			<point x="230" y="121"/>
			<point x="230" y="341" type="curve" smooth="yes"/>
			<point x="230" y="558"/>
			<point x="269" y="680"/>
			<point x="360" y="680" type="curve" smooth="yes"/>
			<point x="451" y="680"/>
			<point x="490" y="558"/>
			<point x="490" y="341" type="curve" smooth="yes"/>
			<point x="490" y="118"/>
			<point x="449" y="6"/>
		</contour>
	</outline>
</glyph>
